<svg xmlns="http://www.w3.org/2000/svg" xmlns:xlink="http://www.w3.org/1999/xlink" version="1.1" class="marks" width="423" height="295" viewBox="0 0 423 295"><rect width="423" height="295" fill="none"/><g fill="none" stroke-miterlimit="10" transform="translate(40,5)"><g class="mark-group role-frame root" role="graphics-object" aria-roledescription="group mark container"><g transform="translate(0,0)"><path class="background" aria-hidden="true" d="M0.5,0.5h250v250h-250Z" stroke="#ddd"/><g><g class="mark-rect role-mark marks" role="graphics-symbol" aria-roledescription="rect mark container"><path d="M0,0h12.5v12.5h-12.5Z" fill="rgb(253, 231, 37)"/><path d="M0,12.5h12.5v12.5h-12.5Z" fill="rgb(253, 231, 37)"/><path d="M0,25h12.5v12.5h-12.5Z" fill="rgb(253, 231, 37)"/><path d="M0,37.5h12.5v12.5h-12.5Z" fill="rgb(253, 231, 37)"/><path d="M0,50h12.5v12.5h-12.5Z" fill="rgb(253, 231, 37)"/><path d="M0,62.5h12.5v12.5h-12.5Z" fill="rgb(253, 231, 37)"/><path d="M0,75h12.5v12.5h-12.5Z" fill="rgb(253, 231, 37)"/><path d="M0,87.5h12.5v12.5h-12.5Z" fill="rgb(253, 231, 37)"/><path d="M0,100h12.5v12.5h-12.5Z" fill="rgb(253, 231, 37)"/><path d="M0,112.5h12.5v12.5h-12.5Z" fill="rgb(253, 231, 37)"/><path d="M0,125h12.5v12.5h-12.5Z" fill="rgb(253, 231, 37)"/><path d="M0,137.5h12.5v12.5h-12.5Z" fill="rgb(253, 231, 37)"/><path d="M0,150h12.5v12.5h-12.5Z" fill="rgb(253, 231, 37)"/><path d="M0,162.5h12.5v12.5h-12.5Z" fill="rgb(253, 231, 37)"/><path d="M0,175h12.5v12.5h-12.5Z" fill="rgb(253, 231, 37)"/><path d="M0,187.5h12.5v12.5h-12.5Z" fill="rgb(253, 231, 37)"/><path d="M0,200h12.5v12.5h-12.5Z" fill="rgb(253, 231, 37)"/><path d="M0,212.5h12.5v12.5h-12.5Z" fill="rgb(253, 231, 37)"/><path d="M0,225h12.5v12.5h-12.5Z" fill="rgb(253, 231, 37)"/><path d="M0,237.5h12.5v12.5h-12.5Z" fill="rgb(253, 231, 37)"/><path d="M12.5,0h12.5v12.5h-12.5Z" fill="rgb(68, 1, 84)"/><path d="M12.5,12.5h12.5v12.5h-12.5Z" fill="rgb(253, 231, 37)"/><path d="M12.5,25h12.5v12.5h-12.5Z" fill="rgb(253, 231, 37)"/><path d="M12.5,37.5h12.5v12.5h-12.5Z" fill="rgb(253, 231, 37)"/><path d="M12.5,50h12.5v12.5h-12.5Z" fill="rgb(253, 231, 37)"/><path d="M12.5,62.5h12.5v12.5h-12.5Z" fill="rgb(253, 231, 37)"/><path d="M12.5,75h12.5v12.5h-12.5Z" fill="rgb(253, 231, 37)"/><path d="M12.5,87.5h12.5v12.5h-12.5Z" fill="rgb(253, 231, 37)"/><path d="M12.5,100h12.5v12.5h-12.5Z" fill="rgb(253, 231, 37)"/><path d="M12.5,112.5h12.5v12.5h-12.5Z" fill="rgb(253, 231, 37)"/><path d="M12.5,125h12.5v12.5h-12.5Z" fill="rgb(253, 231, 37)"/><path d="M12.5,137.5h12.5v12.5h-12.5Z" fill="rgb(253, 231, 37)"/><path d="M12.5,150h12.5v12.5h-12.5Z" fill="rgb(253, 231, 37)"/><path d="M12.5,162.5h12.5v12.5h-12.5Z" fill="rgb(253, 231, 37)"/><path d="M12.5,175h12.5v12.5h-12.5Z" fill="rgb(253, 231, 37)"/><path d="M12.5,187.5h12.5v12.5h-12.5Z" fill="rgb(253, 231, 37)"/><path d="M12.5,200h12.5v12.5h-12.5Z" fill="rgb(253, 231, 37)"/><path d="M12.5,212.5h12.5v12.5h-12.5Z" fill="rgb(253, 231, 37)"/><path d="M12.5,225h12.5v12.5h-12.5Z" fill="rgb(253, 231, 37)"/><path d="M12.5,237.5h12.5v12.5h-12.5Z" fill="rgb(253, 231, 37)"/><path d="M25,0h12.5v12.5h-12.5Z" fill="rgb(68, 1, 84)"/><path d="M25,12.5h12.5v12.5h-12.5Z" fill="rgb(68, 1, 84)"/><path d="M25,25h12.5v12.5h-12.5Z" fill="rgb(253, 231, 37)"/><path d="M25,37.5h12.5v12.5h-12.5Z" fill="rgb(253, 231, 37)"/><path d="M25,50h12.5v12.5h-12.5Z" fill="rgb(253, 231, 37)"/><path d="M25,62.5h12.5v12.5h-12.5Z" fill="rgb(253, 231, 37)"/><path d="M25,75h12.5v12.5h-12.5Z" fill="rgb(253, 231, 37)"/><path d="M25,87.5h12.5v12.5h-12.5Z" fill="rgb(253, 231, 37)"/><path d="M25,100h12.5v12.5h-12.5Z" fill="rgb(253, 231, 37)"/><path d="M25,112.5h12.5v12.5h-12.5Z" fill="rgb(253, 231, 37)"/><path d="M25,125h12.5v12.5h-12.5Z" fill="rgb(253, 231, 37)"/><path d="M25,137.5h12.5v12.5h-12.5Z" fill="rgb(253, 231, 37)"/><path d="M25,150h12.5v12.5h-12.5Z" fill="rgb(253, 231, 37)"/><path d="M25,162.5h12.5v12.5h-12.5Z" fill="rgb(253, 231, 37)"/><path d="M25,175h12.5v12.5h-12.5Z" fill="rgb(253, 231, 37)"/><path d="M25,187.5h12.5v12.5h-12.5Z" fill="rgb(253, 231, 37)"/><path d="M25,200h12.5v12.5h-12.5Z" fill="rgb(253, 231, 37)"/><path d="M25,212.5h12.5v12.5h-12.5Z" fill="rgb(253, 231, 37)"/><path d="M25,225h12.5v12.5h-12.5Z" fill="rgb(253, 231, 37)"/><path d="M25,237.5h12.5v12.5h-12.5Z" fill="rgb(253, 231, 37)"/><path d="M37.5,0h12.5v12.5h-12.5Z" fill="rgb(68, 1, 84)"/><path d="M37.5,12.5h12.5v12.5h-12.5Z" fill="rgb(68, 1, 84)"/><path d="M37.5,25h12.5v12.5h-12.5Z" fill="rgb(68, 1, 84)"/><path d="M37.5,37.5h12.5v12.5h-12.5Z" fill="rgb(253, 231, 37)"/><path d="M37.5,50h12.5v12.5h-12.5Z" fill="rgb(253, 231, 37)"/><path d="M37.5,62.5h12.5v12.5h-12.5Z" fill="rgb(253, 231, 37)"/><path d="M37.5,75h12.5v12.5h-12.5Z" fill="rgb(253, 231, 37)"/><path d="M37.5,87.5h12.5v12.5h-12.5Z" fill="rgb(253, 231, 37)"/><path d="M37.5,100h12.5v12.5h-12.5Z" fill="rgb(253, 231, 37)"/><path d="M37.5,112.5h12.5v12.5h-12.5Z" fill="rgb(253, 231, 37)"/><path d="M37.5,125h12.5v12.5h-12.5Z" fill="rgb(253, 231, 37)"/><path d="M37.5,137.5h12.5v12.5h-12.5Z" fill="rgb(253, 231, 37)"/><path d="M37.5,150h12.5v12.5h-12.5Z" fill="rgb(253, 231, 37)"/><path d="M37.5,162.5h12.5v12.5h-12.5Z" fill="rgb(253, 231, 37)"/><path d="M37.5,175h12.5v12.5h-12.5Z" fill="rgb(253, 231, 37)"/><path d="M37.5,187.5h12.5v12.5h-12.5Z" fill="rgb(253, 231, 37)"/><path d="M37.5,200h12.5v12.5h-12.5Z" fill="rgb(253, 231, 37)"/><path d="M37.5,212.5h12.5v12.5h-12.5Z" fill="rgb(253, 231, 37)"/><path d="M37.5,225h12.5v12.5h-12.5Z" fill="rgb(253, 231, 37)"/><path d="M37.5,237.5h12.5v12.5h-12.5Z" fill="rgb(253, 231, 37)"/><path d="M50,0h12.5v12.5h-12.5Z" fill="rgb(68, 1, 84)"/><path d="M50,12.5h12.5v12.5h-12.5Z" fill="rgb(68, 1, 84)"/><path d="M50,25h12.5v12.5h-12.5Z" fill="rgb(68, 1, 84)"/><path d="M50,37.5h12.5v12.5h-12.5Z" fill="rgb(68, 1, 84)"/><path d="M50,50h12.5v12.5h-12.5Z" fill="rgb(253, 231, 37)"/><path d="M50,62.5h12.5v12.5h-12.5Z" fill="rgb(253, 231, 37)"/><path d="M50,75h12.5v12.5h-12.5Z" fill="rgb(253, 231, 37)"/><path d="M50,87.5h12.5v12.5h-12.5Z" fill="rgb(253, 231, 37)"/><path d="M50,100h12.5v12.5h-12.5Z" fill="rgb(253, 231, 37)"/><path d="M50,112.5h12.5v12.5h-12.5Z" fill="rgb(253, 231, 37)"/><path d="M50,125h12.5v12.5h-12.5Z" fill="rgb(253, 231, 37)"/><path d="M50,137.5h12.5v12.5h-12.5Z" fill="rgb(253, 231, 37)"/><path d="M50,150h12.5v12.5h-12.5Z" fill="rgb(253, 231, 37)"/><path d="M50,162.5h12.5v12.5h-12.5Z" fill="rgb(253, 231, 37)"/><path d="M50,175h12.5v12.5h-12.5Z" fill="rgb(253, 231, 37)"/><path d="M50,187.5h12.5v12.5h-12.5Z" fill="rgb(253, 231, 37)"/><path d="M50,200h12.5v12.5h-12.5Z" fill="rgb(253, 231, 37)"/><path d="M50,212.5h12.5v12.5h-12.5Z" fill="rgb(253, 231, 37)"/><path d="M50,225h12.5v12.5h-12.5Z" fill="rgb(253, 231, 37)"/><path d="M50,237.5h12.5v12.5h-12.5Z" fill="rgb(253, 231, 37)"/><path d="M62.5,0h12.5v12.5h-12.5Z" fill="rgb(68, 1, 84)"/><path d="M62.5,12.5h12.5v12.5h-12.5Z" fill="rgb(68, 1, 84)"/><path d="M62.5,25h12.5v12.5h-12.5Z" fill="rgb(68, 1, 84)"/><path d="M62.5,37.5h12.5v12.5h-12.5Z" fill="rgb(68, 1, 84)"/><path d="M62.5,50h12.5v12.5h-12.5Z" fill="rgb(68, 1, 84)"/><path d="M62.5,62.5h12.5v12.5h-12.5Z" fill="rgb(253, 231, 37)"/><path d="M62.5,75h12.5v12.5h-12.5Z" fill="rgb(253, 231, 37)"/><path d="M62.5,87.5h12.5v12.5h-12.5Z" fill="rgb(253, 231, 37)"/><path d="M62.5,100h12.5v12.5h-12.5Z" fill="rgb(253, 231, 37)"/><path d="M62.5,112.5h12.5v12.5h-12.5Z" fill="rgb(253, 231, 37)"/><path d="M62.5,125h12.5v12.5h-12.5Z" fill="rgb(253, 231, 37)"/><path d="M62.5,137.5h12.5v12.5h-12.5Z" fill="rgb(253, 231, 37)"/><path d="M62.5,150h12.5v12.5h-12.5Z" fill="rgb(253, 231, 37)"/><path d="M62.5,162.5h12.5v12.5h-12.5Z" fill="rgb(253, 231, 37)"/><path d="M62.5,175h12.5v12.5h-12.5Z" fill="rgb(253, 231, 37)"/><path d="M62.5,187.5h12.5v12.5h-12.5Z" fill="rgb(253, 231, 37)"/><path d="M62.5,200h12.5v12.5h-12.5Z" fill="rgb(253, 231, 37)"/><path d="M62.5,212.5h12.5v12.5h-12.5Z" fill="rgb(253, 231, 37)"/><path d="M62.5,225h12.5v12.5h-12.5Z" fill="rgb(253, 231, 37)"/><path d="M62.5,237.5h12.5v12.5h-12.5Z" fill="rgb(253, 231, 37)"/><path d="M75,0h12.5v12.5h-12.5Z" fill="rgb(68, 1, 84)"/><path d="M75,12.5h12.5v12.5h-12.5Z" fill="rgb(68, 1, 84)"/><path d="M75,25h12.5v12.5h-12.5Z" fill="rgb(68, 1, 84)"/><path d="M75,37.5h12.5v12.5h-12.5Z" fill="rgb(68, 1, 84)"/><path d="M75,50h12.5v12.5h-12.5Z" fill="rgb(68, 1, 84)"/><path d="M75,62.5h12.5v12.5h-12.5Z" fill="rgb(68, 1, 84)"/><path d="M75,75h12.5v12.5h-12.5Z" fill="rgb(253, 231, 37)"/><path d="M75,87.5h12.5v12.5h-12.5Z" fill="rgb(253, 231, 37)"/><path d="M75,100h12.5v12.5h-12.5Z" fill="rgb(253, 231, 37)"/><path d="M75,112.5h12.5v12.5h-12.5Z" fill="rgb(253, 231, 37)"/><path d="M75,125h12.5v12.5h-12.5Z" fill="rgb(253, 231, 37)"/><path d="M75,137.5h12.5v12.5h-12.5Z" fill="rgb(253, 231, 37)"/><path d="M75,150h12.5v12.5h-12.5Z" fill="rgb(253, 231, 37)"/><path d="M75,162.5h12.5v12.5h-12.5Z" fill="rgb(253, 231, 37)"/><path d="M75,175h12.5v12.5h-12.5Z" fill="rgb(253, 231, 37)"/><path d="M75,187.5h12.5v12.5h-12.5Z" fill="rgb(253, 231, 37)"/><path d="M75,200h12.5v12.5h-12.5Z" fill="rgb(253, 231, 37)"/><path d="M75,212.5h12.5v12.5h-12.5Z" fill="rgb(253, 231, 37)"/><path d="M75,225h12.5v12.5h-12.5Z" fill="rgb(253, 231, 37)"/><path d="M75,237.5h12.5v12.5h-12.5Z" fill="rgb(253, 231, 37)"/><path d="M87.5,0h12.5v12.5h-12.5Z" fill="rgb(68, 1, 84)"/><path d="M87.5,12.5h12.5v12.5h-12.5Z" fill="rgb(68, 1, 84)"/><path d="M87.5,25h12.5v12.5h-12.5Z" fill="rgb(68, 1, 84)"/><path d="M87.5,37.5h12.5v12.5h-12.5Z" fill="rgb(68, 1, 84)"/><path d="M87.5,50h12.5v12.5h-12.5Z" fill="rgb(68, 1, 84)"/><path d="M87.5,62.5h12.5v12.5h-12.5Z" fill="rgb(68, 1, 84)"/><path d="M87.5,75h12.5v12.5h-12.5Z" fill="rgb(68, 1, 84)"/><path d="M87.5,87.5h12.5v12.5h-12.5Z" fill="rgb(253, 231, 37)"/><path d="M87.5,100h12.5v12.5h-12.5Z" fill="rgb(253, 231, 37)"/><path d="M87.5,112.5h12.5v12.5h-12.5Z" fill="rgb(253, 231, 37)"/><path d="M87.5,125h12.5v12.5h-12.5Z" fill="rgb(253, 231, 37)"/><path d="M87.5,137.5h12.5v12.5h-12.5Z" fill="rgb(253, 231, 37)"/><path d="M87.5,150h12.5v12.5h-12.5Z" fill="rgb(253, 231, 37)"/><path d="M87.5,162.5h12.5v12.5h-12.5Z" fill="rgb(253, 231, 37)"/><path d="M87.5,175h12.5v12.5h-12.5Z" fill="rgb(253, 231, 37)"/><path d="M87.5,187.5h12.5v12.5h-12.5Z" fill="rgb(253, 231, 37)"/><path d="M87.5,200h12.5v12.5h-12.5Z" fill="rgb(253, 231, 37)"/><path d="M87.5,212.5h12.5v12.5h-12.5Z" fill="rgb(253, 231, 37)"/><path d="M87.5,225h12.5v12.5h-12.5Z" fill="rgb(253, 231, 37)"/><path d="M87.5,237.5h12.5v12.5h-12.5Z" fill="rgb(253, 231, 37)"/><path d="M100,0h12.5v12.5h-12.5Z" fill="rgb(68, 1, 84)"/><path d="M100,12.5h12.5v12.5h-12.5Z" fill="rgb(68, 1, 84)"/><path d="M100,25h12.5v12.5h-12.5Z" fill="rgb(68, 1, 84)"/><path d="M100,37.5h12.5v12.5h-12.5Z" fill="rgb(68, 1, 84)"/><path d="M100,50h12.5v12.5h-12.5Z" fill="rgb(68, 1, 84)"/><path d="M100,62.5h12.5v12.5h-12.5Z" fill="rgb(68, 1, 84)"/><path d="M100,75h12.5v12.5h-12.5Z" fill="rgb(68, 1, 84)"/><path d="M100,87.5h12.5v12.5h-12.5Z" fill="rgb(68, 1, 84)"/><path d="M100,100h12.5v12.5h-12.5Z" fill="rgb(253, 231, 37)"/><path d="M100,112.5h12.5v12.5h-12.5Z" fill="rgb(253, 231, 37)"/><path d="M100,125h12.5v12.5h-12.5Z" fill="rgb(253, 231, 37)"/><path d="M100,137.5h12.5v12.5h-12.5Z" fill="rgb(253, 231, 37)"/><path d="M100,150h12.5v12.5h-12.5Z" fill="rgb(253, 231, 37)"/><path d="M100,162.5h12.5v12.5h-12.5Z" fill="rgb(253, 231, 37)"/><path d="M100,175h12.5v12.5h-12.5Z" fill="rgb(253, 231, 37)"/><path d="M100,187.5h12.5v12.5h-12.5Z" fill="rgb(253, 231, 37)"/><path d="M100,200h12.5v12.5h-12.5Z" fill="rgb(253, 231, 37)"/><path d="M100,212.5h12.5v12.5h-12.5Z" fill="rgb(253, 231, 37)"/><path d="M100,225h12.5v12.5h-12.5Z" fill="rgb(253, 231, 37)"/><path d="M100,237.5h12.5v12.5h-12.5Z" fill="rgb(253, 231, 37)"/><path d="M112.5,0h12.5v12.5h-12.5Z" fill="rgb(68, 1, 84)"/><path d="M112.5,12.5h12.5v12.5h-12.5Z" fill="rgb(68, 1, 84)"/><path d="M112.5,25h12.5v12.5h-12.5Z" fill="rgb(68, 1, 84)"/><path d="M112.5,37.5h12.5v12.5h-12.5Z" fill="rgb(68, 1, 84)"/><path d="M112.5,50h12.5v12.5h-12.5Z" fill="rgb(68, 1, 84)"/><path d="M112.5,62.5h12.5v12.5h-12.5Z" fill="rgb(68, 1, 84)"/><path d="M112.5,75h12.5v12.5h-12.5Z" fill="rgb(68, 1, 84)"/><path d="M112.5,87.5h12.5v12.5h-12.5Z" fill="rgb(68, 1, 84)"/><path d="M112.5,100h12.5v12.5h-12.5Z" fill="rgb(68, 1, 84)"/><path d="M112.5,112.5h12.5v12.5h-12.5Z" fill="rgb(253, 231, 37)"/><path d="M112.5,125h12.5v12.5h-12.5Z" fill="rgb(253, 231, 37)"/><path d="M112.5,137.5h12.5v12.5h-12.5Z" fill="rgb(253, 231, 37)"/><path d="M112.5,150h12.5v12.5h-12.5Z" fill="rgb(253, 231, 37)"/><path d="M112.5,162.5h12.5v12.5h-12.5Z" fill="rgb(253, 231, 37)"/><path d="M112.5,175h12.5v12.5h-12.5Z" fill="rgb(253, 231, 37)"/><path d="M112.5,187.5h12.5v12.5h-12.5Z" fill="rgb(253, 231, 37)"/><path d="M112.5,200h12.5v12.5h-12.5Z" fill="rgb(253, 231, 37)"/><path d="M112.5,212.5h12.5v12.5h-12.5Z" fill="rgb(253, 231, 37)"/><path d="M112.5,225h12.5v12.5h-12.5Z" fill="rgb(253, 231, 37)"/><path d="M112.5,237.5h12.5v12.5h-12.5Z" fill="rgb(253, 231, 37)"/><path d="M125,0h12.5v12.5h-12.5Z" fill="rgb(68, 1, 84)"/><path d="M125,12.5h12.5v12.5h-12.5Z" fill="rgb(68, 1, 84)"/><path d="M125,25h12.5v12.5h-12.5Z" fill="rgb(68, 1, 84)"/><path d="M125,37.5h12.5v12.5h-12.5Z" fill="rgb(68, 1, 84)"/><path d="M125,50h12.5v12.5h-12.5Z" fill="rgb(68, 1, 84)"/><path d="M125,62.5h12.5v12.5h-12.5Z" fill="rgb(68, 1, 84)"/><path d="M125,75h12.5v12.5h-12.5Z" fill="rgb(68, 1, 84)"/><path d="M125,87.5h12.5v12.5h-12.5Z" fill="rgb(68, 1, 84)"/><path d="M125,100h12.5v12.5h-12.5Z" fill="rgb(68, 1, 84)"/><path d="M125,112.5h12.5v12.5h-12.5Z" fill="rgb(68, 1, 84)"/><path d="M125,125h12.5v12.5h-12.5Z" fill="rgb(253, 231, 37)"/><path d="M125,137.5h12.5v12.5h-12.5Z" fill="rgb(253, 231, 37)"/><path d="M125,150h12.5v12.5h-12.5Z" fill="rgb(253, 231, 37)"/><path d="M125,162.5h12.5v12.5h-12.5Z" fill="rgb(253, 231, 37)"/><path d="M125,175h12.5v12.5h-12.5Z" fill="rgb(253, 231, 37)"/><path d="M125,187.5h12.5v12.5h-12.5Z" fill="rgb(253, 231, 37)"/><path d="M125,200h12.5v12.5h-12.5Z" fill="rgb(253, 231, 37)"/><path d="M125,212.5h12.5v12.5h-12.5Z" fill="rgb(253, 231, 37)"/><path d="M125,225h12.5v12.5h-12.5Z" fill="rgb(253, 231, 37)"/><path d="M125,237.5h12.5v12.5h-12.5Z" fill="rgb(253, 231, 37)"/><path d="M137.5,0h12.5v12.5h-12.5Z" fill="rgb(68, 1, 84)"/><path d="M137.5,12.5h12.5v12.5h-12.5Z" fill="rgb(68, 1, 84)"/><path d="M137.5,25h12.5v12.5h-12.5Z" fill="rgb(68, 1, 84)"/><path d="M137.5,37.5h12.5v12.5h-12.5Z" fill="rgb(68, 1, 84)"/><path d="M137.5,50h12.5v12.5h-12.5Z" fill="rgb(68, 1, 84)"/><path d="M137.5,62.5h12.5v12.5h-12.5Z" fill="rgb(68, 1, 84)"/><path d="M137.5,75h12.5v12.5h-12.5Z" fill="rgb(68, 1, 84)"/><path d="M137.5,87.5h12.5v12.5h-12.5Z" fill="rgb(68, 1, 84)"/><path d="M137.5,100h12.5v12.5h-12.5Z" fill="rgb(68, 1, 84)"/><path d="M137.5,112.5h12.5v12.5h-12.5Z" fill="rgb(68, 1, 84)"/><path d="M137.5,125h12.5v12.5h-12.5Z" fill="rgb(68, 1, 84)"/><path d="M137.5,137.5h12.5v12.5h-12.5Z" fill="rgb(253, 231, 37)"/><path d="M137.5,150h12.5v12.5h-12.5Z" fill="rgb(253, 231, 37)"/><path d="M137.5,162.5h12.5v12.5h-12.5Z" fill="rgb(253, 231, 37)"/><path d="M137.5,175h12.5v12.5h-12.5Z" fill="rgb(253, 231, 37)"/><path d="M137.5,187.5h12.5v12.5h-12.5Z" fill="rgb(253, 231, 37)"/><path d="M137.5,200h12.5v12.5h-12.5Z" fill="rgb(253, 231, 37)"/><path d="M137.5,212.5h12.5v12.5h-12.5Z" fill="rgb(253, 231, 37)"/><path d="M137.5,225h12.5v12.5h-12.5Z" fill="rgb(253, 231, 37)"/><path d="M137.5,237.5h12.5v12.5h-12.5Z" fill="rgb(253, 231, 37)"/><path d="M150,0h12.5v12.5h-12.5Z" fill="rgb(68, 1, 84)"/><path d="M150,12.5h12.5v12.5h-12.5Z" fill="rgb(68, 1, 84)"/><path d="M150,25h12.5v12.5h-12.5Z" fill="rgb(68, 1, 84)"/><path d="M150,37.5h12.5v12.5h-12.5Z" fill="rgb(68, 1, 84)"/><path d="M150,50h12.5v12.5h-12.5Z" fill="rgb(68, 1, 84)"/><path d="M150,62.5h12.5v12.5h-12.5Z" fill="rgb(68, 1, 84)"/><path d="M150,75h12.5v12.5h-12.5Z" fill="rgb(68, 1, 84)"/><path d="M150,87.5h12.5v12.5h-12.5Z" fill="rgb(68, 1, 84)"/><path d="M150,100h12.5v12.5h-12.5Z" fill="rgb(68, 1, 84)"/><path d="M150,112.5h12.5v12.5h-12.5Z" fill="rgb(68, 1, 84)"/><path d="M150,125h12.5v12.5h-12.5Z" fill="rgb(68, 1, 84)"/><path d="M150,137.5h12.5v12.5h-12.5Z" fill="rgb(68, 1, 84)"/><path d="M150,150h12.5v12.5h-12.5Z" fill="rgb(253, 231, 37)"/><path d="M150,162.5h12.5v12.5h-12.5Z" fill="rgb(253, 231, 37)"/><path d="M150,175h12.5v12.5h-12.5Z" fill="rgb(253, 231, 37)"/><path d="M150,187.5h12.5v12.5h-12.5Z" fill="rgb(253, 231, 37)"/><path d="M150,200h12.5v12.5h-12.5Z" fill="rgb(253, 231, 37)"/><path d="M150,212.5h12.5v12.5h-12.5Z" fill="rgb(253, 231, 37)"/><path d="M150,225h12.5v12.5h-12.5Z" fill="rgb(253, 231, 37)"/><path d="M150,237.5h12.5v12.5h-12.5Z" fill="rgb(253, 231, 37)"/><path d="M162.5,0h12.5v12.5h-12.5Z" fill="rgb(68, 1, 84)"/><path d="M162.5,12.5h12.5v12.5h-12.5Z" fill="rgb(68, 1, 84)"/><path d="M162.5,25h12.5v12.5h-12.5Z" fill="rgb(68, 1, 84)"/><path d="M162.5,37.5h12.5v12.5h-12.5Z" fill="rgb(68, 1, 84)"/><path d="M162.5,50h12.5v12.5h-12.5Z" fill="rgb(68, 1, 84)"/><path d="M162.5,62.5h12.5v12.5h-12.5Z" fill="rgb(68, 1, 84)"/><path d="M162.5,75h12.5v12.5h-12.5Z" fill="rgb(68, 1, 84)"/><path d="M162.5,87.5h12.5v12.5h-12.5Z" fill="rgb(68, 1, 84)"/><path d="M162.5,100h12.5v12.5h-12.5Z" fill="rgb(68, 1, 84)"/><path d="M162.5,112.5h12.5v12.5h-12.5Z" fill="rgb(68, 1, 84)"/><path d="M162.5,125h12.5v12.5h-12.5Z" fill="rgb(68, 1, 84)"/><path d="M162.5,137.5h12.5v12.5h-12.5Z" fill="rgb(68, 1, 84)"/><path d="M162.5,150h12.5v12.5h-12.5Z" fill="rgb(68, 1, 84)"/><path d="M162.5,162.5h12.5v12.5h-12.5Z" fill="rgb(253, 231, 37)"/><path d="M162.5,175h12.5v12.5h-12.5Z" fill="rgb(253, 231, 37)"/><path d="M162.5,187.5h12.5v12.5h-12.5Z" fill="rgb(253, 231, 37)"/><path d="M162.5,200h12.5v12.5h-12.5Z" fill="rgb(253, 231, 37)"/><path d="M162.5,212.5h12.5v12.5h-12.5Z" fill="rgb(253, 231, 37)"/><path d="M162.5,225h12.5v12.5h-12.5Z" fill="rgb(253, 231, 37)"/><path d="M162.5,237.5h12.5v12.5h-12.5Z" fill="rgb(253, 231, 37)"/><path d="M175,0h12.5v12.5h-12.5Z" fill="rgb(68, 1, 84)"/><path d="M175,12.5h12.5v12.5h-12.5Z" fill="rgb(68, 1, 84)"/><path d="M175,25h12.5v12.5h-12.5Z" fill="rgb(68, 1, 84)"/><path d="M175,37.5h12.5v12.5h-12.5Z" fill="rgb(68, 1, 84)"/><path d="M175,50h12.5v12.5h-12.5Z" fill="rgb(68, 1, 84)"/><path d="M175,62.5h12.5v12.5h-12.5Z" fill="rgb(68, 1, 84)"/><path d="M175,75h12.5v12.5h-12.5Z" fill="rgb(68, 1, 84)"/><path d="M175,87.5h12.5v12.5h-12.5Z" fill="rgb(68, 1, 84)"/><path d="M175,100h12.5v12.5h-12.5Z" fill="rgb(68, 1, 84)"/><path d="M175,112.5h12.5v12.5h-12.5Z" fill="rgb(68, 1, 84)"/><path d="M175,125h12.5v12.5h-12.5Z" fill="rgb(68, 1, 84)"/><path d="M175,137.5h12.5v12.5h-12.5Z" fill="rgb(68, 1, 84)"/><path d="M175,150h12.5v12.5h-12.5Z" fill="rgb(68, 1, 84)"/><path d="M175,162.5h12.5v12.5h-12.5Z" fill="rgb(68, 1, 84)"/><path d="M175,175h12.5v12.5h-12.5Z" fill="rgb(253, 231, 37)"/><path d="M175,187.5h12.5v12.5h-12.5Z" fill="rgb(253, 231, 37)"/><path d="M175,200h12.5v12.5h-12.5Z" fill="rgb(253, 231, 37)"/><path d="M175,212.5h12.5v12.5h-12.5Z" fill="rgb(253, 231, 37)"/><path d="M175,225h12.5v12.5h-12.5Z" fill="rgb(253, 231, 37)"/><path d="M175,237.5h12.5v12.5h-12.5Z" fill="rgb(253, 231, 37)"/><path d="M187.5,0h12.5v12.5h-12.5Z" fill="rgb(68, 1, 84)"/><path d="M187.5,12.5h12.5v12.5h-12.5Z" fill="rgb(68, 1, 84)"/><path d="M187.5,25h12.5v12.5h-12.5Z" fill="rgb(68, 1, 84)"/><path d="M187.5,37.5h12.5v12.5h-12.5Z" fill="rgb(68, 1, 84)"/><path d="M187.5,50h12.5v12.5h-12.5Z" fill="rgb(68, 1, 84)"/><path d="M187.5,62.5h12.5v12.5h-12.5Z" fill="rgb(68, 1, 84)"/><path d="M187.5,75h12.5v12.5h-12.5Z" fill="rgb(68, 1, 84)"/><path d="M187.5,87.5h12.5v12.5h-12.5Z" fill="rgb(68, 1, 84)"/><path d="M187.5,100h12.5v12.5h-12.5Z" fill="rgb(68, 1, 84)"/><path d="M187.5,112.5h12.5v12.5h-12.5Z" fill="rgb(68, 1, 84)"/><path d="M187.5,125h12.5v12.5h-12.5Z" fill="rgb(68, 1, 84)"/><path d="M187.5,137.5h12.5v12.5h-12.5Z" fill="rgb(68, 1, 84)"/><path d="M187.5,150h12.5v12.5h-12.5Z" fill="rgb(68, 1, 84)"/><path d="M187.5,162.5h12.5v12.5h-12.5Z" fill="rgb(68, 1, 84)"/><path d="M187.5,175h12.5v12.5h-12.5Z" fill="rgb(68, 1, 84)"/><path d="M187.5,187.5h12.5v12.5h-12.5Z" fill="rgb(253, 231, 37)"/><path d="M187.5,200h12.5v12.5h-12.5Z" fill="rgb(253, 231, 37)"/><path d="M187.5,212.5h12.5v12.5h-12.5Z" fill="rgb(253, 231, 37)"/><path d="M187.5,225h12.5v12.5h-12.5Z" fill="rgb(253, 231, 37)"/><path d="M187.5,237.5h12.5v12.5h-12.5Z" fill="rgb(253, 231, 37)"/><path d="M200,0h12.5v12.5h-12.5Z" fill="rgb(68, 1, 84)"/><path d="M200,12.5h12.5v12.5h-12.5Z" fill="rgb(68, 1, 84)"/><path d="M200,25h12.5v12.5h-12.5Z" fill="rgb(68, 1, 84)"/><path d="M200,37.5h12.5v12.5h-12.5Z" fill="rgb(68, 1, 84)"/><path d="M200,50h12.5v12.5h-12.5Z" fill="rgb(68, 1, 84)"/><path d="M200,62.5h12.5v12.5h-12.5Z" fill="rgb(68, 1, 84)"/><path d="M200,75h12.5v12.5h-12.5Z" fill="rgb(68, 1, 84)"/><path d="M200,87.5h12.5v12.5h-12.5Z" fill="rgb(68, 1, 84)"/><path d="M200,100h12.5v12.5h-12.5Z" fill="rgb(68, 1, 84)"/><path d="M200,112.5h12.5v12.5h-12.5Z" fill="rgb(68, 1, 84)"/><path d="M200,125h12.5v12.5h-12.5Z" fill="rgb(68, 1, 84)"/><path d="M200,137.5h12.5v12.5h-12.5Z" fill="rgb(68, 1, 84)"/><path d="M200,150h12.5v12.5h-12.5Z" fill="rgb(68, 1, 84)"/><path d="M200,162.5h12.5v12.5h-12.5Z" fill="rgb(68, 1, 84)"/><path d="M200,175h12.5v12.5h-12.5Z" fill="rgb(68, 1, 84)"/><path d="M200,187.5h12.5v12.5h-12.5Z" fill="rgb(68, 1, 84)"/><path d="M200,200h12.5v12.5h-12.5Z" fill="rgb(253, 231, 37)"/><path d="M200,212.5h12.5v12.5h-12.5Z" fill="rgb(253, 231, 37)"/><path d="M200,225h12.5v12.5h-12.5Z" fill="rgb(253, 231, 37)"/><path d="M200,237.5h12.5v12.5h-12.5Z" fill="rgb(253, 231, 37)"/><path d="M212.5,0h12.5v12.5h-12.5Z" fill="rgb(68, 1, 84)"/><path d="M212.5,12.5h12.5v12.5h-12.5Z" fill="rgb(68, 1, 84)"/><path d="M212.5,25h12.5v12.5h-12.5Z" fill="rgb(68, 1, 84)"/><path d="M212.5,37.5h12.5v12.5h-12.5Z" fill="rgb(68, 1, 84)"/><path d="M212.5,50h12.5v12.5h-12.5Z" fill="rgb(68, 1, 84)"/><path d="M212.5,62.5h12.5v12.5h-12.5Z" fill="rgb(68, 1, 84)"/><path d="M212.5,75h12.5v12.5h-12.5Z" fill="rgb(68, 1, 84)"/><path d="M212.5,87.5h12.5v12.5h-12.5Z" fill="rgb(68, 1, 84)"/><path d="M212.5,100h12.5v12.5h-12.5Z" fill="rgb(68, 1, 84)"/><path d="M212.5,112.5h12.5v12.5h-12.5Z" fill="rgb(68, 1, 84)"/><path d="M212.5,125h12.5v12.5h-12.5Z" fill="rgb(68, 1, 84)"/><path d="M212.5,137.5h12.5v12.5h-12.5Z" fill="rgb(68, 1, 84)"/><path d="M212.5,150h12.5v12.5h-12.5Z" fill="rgb(68, 1, 84)"/><path d="M212.5,162.5h12.5v12.5h-12.5Z" fill="rgb(68, 1, 84)"/><path d="M212.5,175h12.5v12.5h-12.5Z" fill="rgb(68, 1, 84)"/><path d="M212.5,187.5h12.5v12.5h-12.5Z" fill="rgb(68, 1, 84)"/><path d="M212.5,200h12.5v12.5h-12.5Z" fill="rgb(68, 1, 84)"/><path d="M212.5,212.5h12.5v12.5h-12.5Z" fill="rgb(253, 231, 37)"/><path d="M212.5,225h12.5v12.5h-12.5Z" fill="rgb(253, 231, 37)"/><path d="M212.5,237.5h12.5v12.5h-12.5Z" fill="rgb(253, 231, 37)"/><path d="M225,0h12.5v12.5h-12.5Z" fill="rgb(68, 1, 84)"/><path d="M225,12.5h12.5v12.5h-12.5Z" fill="rgb(68, 1, 84)"/><path d="M225,25h12.5v12.5h-12.5Z" fill="rgb(68, 1, 84)"/><path d="M225,37.5h12.5v12.5h-12.5Z" fill="rgb(68, 1, 84)"/><path d="M225,50h12.5v12.5h-12.5Z" fill="rgb(68, 1, 84)"/><path d="M225,62.5h12.5v12.5h-12.5Z" fill="rgb(68, 1, 84)"/><path d="M225,75h12.5v12.5h-12.5Z" fill="rgb(68, 1, 84)"/><path d="M225,87.5h12.5v12.5h-12.5Z" fill="rgb(68, 1, 84)"/><path d="M225,100h12.5v12.5h-12.5Z" fill="rgb(68, 1, 84)"/><path d="M225,112.5h12.5v12.5h-12.5Z" fill="rgb(68, 1, 84)"/><path d="M225,125h12.5v12.5h-12.5Z" fill="rgb(68, 1, 84)"/><path d="M225,137.5h12.5v12.5h-12.5Z" fill="rgb(68, 1, 84)"/><path d="M225,150h12.5v12.5h-12.5Z" fill="rgb(68, 1, 84)"/><path d="M225,162.5h12.5v12.5h-12.5Z" fill="rgb(68, 1, 84)"/><path d="M225,175h12.5v12.5h-12.5Z" fill="rgb(68, 1, 84)"/><path d="M225,187.5h12.5v12.5h-12.5Z" fill="rgb(68, 1, 84)"/><path d="M225,200h12.5v12.5h-12.5Z" fill="rgb(68, 1, 84)"/><path d="M225,212.5h12.5v12.5h-12.5Z" fill="rgb(68, 1, 84)"/><path d="M225,225h12.5v12.5h-12.5Z" fill="rgb(253, 231, 37)"/><path d="M225,237.5h12.5v12.5h-12.5Z" fill="rgb(253, 231, 37)"/><path d="M237.5,0h12.5v12.5h-12.5Z" fill="rgb(68, 1, 84)"/><path d="M237.5,12.5h12.5v12.5h-12.5Z" fill="rgb(68, 1, 84)"/><path d="M237.5,25h12.5v12.5h-12.5Z" fill="rgb(68, 1, 84)"/><path d="M237.5,37.5h12.5v12.5h-12.5Z" fill="rgb(68, 1, 84)"/><path d="M237.5,50h12.5v12.5h-12.5Z" fill="rgb(68, 1, 84)"/><path d="M237.5,62.5h12.5v12.5h-12.5Z" fill="rgb(68, 1, 84)"/><path d="M237.5,75h12.5v12.5h-12.5Z" fill="rgb(68, 1, 84)"/><path d="M237.5,87.5h12.5v12.5h-12.5Z" fill="rgb(68, 1, 84)"/><path d="M237.5,100h12.5v12.5h-12.5Z" fill="rgb(68, 1, 84)"/><path d="M237.5,112.5h12.5v12.5h-12.5Z" fill="rgb(68, 1, 84)"/><path d="M237.5,125h12.5v12.5h-12.5Z" fill="rgb(68, 1, 84)"/><path d="M237.5,137.5h12.5v12.5h-12.5Z" fill="rgb(68, 1, 84)"/><path d="M237.5,150h12.5v12.5h-12.5Z" fill="rgb(68, 1, 84)"/><path d="M237.5,162.5h12.5v12.5h-12.5Z" fill="rgb(68, 1, 84)"/><path d="M237.5,175h12.5v12.5h-12.5Z" fill="rgb(68, 1, 84)"/><path d="M237.5,187.5h12.5v12.5h-12.5Z" fill="rgb(68, 1, 84)"/><path d="M237.5,200h12.5v12.5h-12.5Z" fill="rgb(68, 1, 84)"/><path d="M237.5,212.5h12.5v12.5h-12.5Z" fill="rgb(68, 1, 84)"/><path d="M237.5,225h12.5v12.5h-12.5Z" fill="rgb(68, 1, 84)"/><path d="M237.5,237.5h12.5v12.5h-12.5Z" fill="rgb(253, 231, 37)"/></g><g class="mark-group role-legend" role="graphics-symbol" aria-roledescription="legend" aria-label="Gradient legend titled 'Subsequent Mask' for fill color with values from 0.0 to 1.0"><g transform="translate(268,0)"><path class="background" aria-hidden="true" d="M0,0h110v216h-110Z" pointer-events="none"/><g><g class="mark-group role-legend-entry"><g transform="translate(0,16)"><path class="background" aria-hidden="true" d="M0,0h0v0h0Z" pointer-events="none"/><g><g class="mark-rect role-legend-gradient" pointer-events="none"><path d="M0,0h16v200h-16Z" fill="url(#gradient_0)" stroke="#ddd" stroke-width="0" opacity="1"/></g><g class="mark-text role-legend-label" pointer-events="none"><text text-anchor="start" transform="translate(18,198)" font-family="sans-serif" font-size="10px" fill="#000" opacity="1">0.0</text><text text-anchor="start" transform="translate(18,163)" font-family="sans-serif" font-size="10px" fill="#000" opacity="1">0.2</text><text text-anchor="start" transform="translate(18,123)" font-family="sans-serif" font-size="10px" fill="#000" opacity="1">0.4</text><text text-anchor="start" transform="translate(18,83)" font-family="sans-serif" font-size="10px" fill="#000" opacity="1">0.6</text><text text-anchor="start" transform="translate(18,42.99999999999999)" font-family="sans-serif" font-size="10px" fill="#000" opacity="1">0.8</text><text text-anchor="start" transform="translate(18,8)" font-family="sans-serif" font-size="10px" fill="#000" opacity="1">1.0</text></g></g><path class="foreground" aria-hidden="true" d="" pointer-events="none" display="none"/></g></g><g class="mark-text role-legend-title" pointer-events="none"><text text-anchor="start" transform="translate(0,9)" font-family="sans-serif" font-size="11px" font-weight="bold" fill="#000" opacity="1">Subsequent Mask</text></g></g><path class="foreground" aria-hidden="true" d="" pointer-events="none" display="none"/></g></g><g class="mark-group role-axis" role="graphics-symbol" aria-roledescription="axis" aria-label="X-axis titled 'Window' for a discrete scale with 20 values: 0, 1, 2, 3, 4, ending with 19"><g transform="translate(0.5,250.5)"><path class="background" aria-hidden="true" d="M0,0h0v0h0Z" pointer-events="none"/><g><g class="mark-rule role-axis-tick" pointer-events="none"><line transform="translate(6,0)" x2="0" y2="5" stroke="#888" stroke-width="1" opacity="1"/><line transform="translate(18,0)" x2="0" y2="5" stroke="#888" stroke-width="1" opacity="1"/><line transform="translate(31,0)" x2="0" y2="5" stroke="#888" stroke-width="1" opacity="1"/><line transform="translate(43,0)" x2="0" y2="5" stroke="#888" stroke-width="1" opacity="1"/><line transform="translate(56,0)" x2="0" y2="5" stroke="#888" stroke-width="1" opacity="1"/><line transform="translate(68,0)" x2="0" y2="5" stroke="#888" stroke-width="1" opacity="1"/><line transform="translate(81,0)" x2="0" y2="5" stroke="#888" stroke-width="1" opacity="1"/><line transform="translate(93,0)" x2="0" y2="5" stroke="#888" stroke-width="1" opacity="1"/><line transform="translate(106,0)" x2="0" y2="5" stroke="#888" stroke-width="1" opacity="1"/><line transform="translate(118,0)" x2="0" y2="5" stroke="#888" stroke-width="1" opacity="1"/><line transform="translate(131,0)" x2="0" y2="5" stroke="#888" stroke-width="1" opacity="1"/><line transform="translate(143,0)" x2="0" y2="5" stroke="#888" stroke-width="1" opacity="1"/><line transform="translate(156,0)" x2="0" y2="5" stroke="#888" stroke-width="1" opacity="1"/><line transform="translate(168,0)" x2="0" y2="5" stroke="#888" stroke-width="1" opacity="1"/><line transform="translate(181,0)" x2="0" y2="5" stroke="#888" stroke-width="1" opacity="1"/><line transform="translate(193,0)" x2="0" y2="5" stroke="#888" stroke-width="1" opacity="1"/><line transform="translate(206,0)" x2="0" y2="5" stroke="#888" stroke-width="1" opacity="1"/><line transform="translate(218,0)" x2="0" y2="5" stroke="#888" stroke-width="1" opacity="1"/><line transform="translate(231,0)" x2="0" y2="5" stroke="#888" stroke-width="1" opacity="1"/><line transform="translate(243,0)" x2="0" y2="5" stroke="#888" stroke-width="1" opacity="1"/></g><g class="mark-text role-axis-label" pointer-events="none"><text text-anchor="end" transform="translate(5.75,7) rotate(270) translate(0,3)" font-family="sans-serif" font-size="10px" fill="#000" opacity="1">0</text><text text-anchor="end" transform="translate(18.25,7) rotate(270) translate(0,3)" font-family="sans-serif" font-size="10px" fill="#000" opacity="1">1</text><text text-anchor="end" transform="translate(30.75,7) rotate(270) translate(0,3)" font-family="sans-serif" font-size="10px" fill="#000" opacity="1">2</text><text text-anchor="end" transform="translate(43.25,7) rotate(270) translate(0,3)" font-family="sans-serif" font-size="10px" fill="#000" opacity="1">3</text><text text-anchor="end" transform="translate(55.75,7) rotate(270) translate(0,3)" font-family="sans-serif" font-size="10px" fill="#000" opacity="1">4</text><text text-anchor="end" transform="translate(68.25,7) rotate(270) translate(0,3)" font-family="sans-serif" font-size="10px" fill="#000" opacity="1">5</text><text text-anchor="end" transform="translate(80.75,7) rotate(270) translate(0,3)" font-family="sans-serif" font-size="10px" fill="#000" opacity="1">6</text><text text-anchor="end" transform="translate(93.25,7) rotate(270) translate(0,3)" font-family="sans-serif" font-size="10px" fill="#000" opacity="1">7</text><text text-anchor="end" transform="translate(105.75,7) rotate(270) translate(0,3)" font-family="sans-serif" font-size="10px" fill="#000" opacity="1">8</text><text text-anchor="end" transform="translate(118.25,7) rotate(270) translate(0,3)" font-family="sans-serif" font-size="10px" fill="#000" opacity="1">9</text><text text-anchor="end" transform="translate(130.75,7) rotate(270) translate(0,3)" font-family="sans-serif" font-size="10px" fill="#000" opacity="1">10</text><text text-anchor="end" transform="translate(143.25,7) rotate(270) translate(0,3)" font-family="sans-serif" font-size="10px" fill="#000" opacity="1">11</text><text text-anchor="end" transform="translate(155.75,7) rotate(270) translate(0,3)" font-family="sans-serif" font-size="10px" fill="#000" opacity="1">12</text><text text-anchor="end" transform="translate(168.25,7) rotate(270) translate(0,3)" font-family="sans-serif" font-size="10px" fill="#000" opacity="1">13</text><text text-anchor="end" transform="translate(180.75,7) rotate(270) translate(0,3)" font-family="sans-serif" font-size="10px" fill="#000" opacity="1">14</text><text text-anchor="end" transform="translate(193.25,7) rotate(270) translate(0,3)" font-family="sans-serif" font-size="10px" fill="#000" opacity="1">15</text><text text-anchor="end" transform="translate(205.75,7) rotate(270) translate(0,3)" font-family="sans-serif" font-size="10px" fill="#000" opacity="1">16</text><text text-anchor="end" transform="translate(218.25,7) rotate(270) translate(0,3)" font-family="sans-serif" font-size="10px" fill="#000" opacity="1">17</text><text text-anchor="end" transform="translate(230.75,7) rotate(270) translate(0,3)" font-family="sans-serif" font-size="10px" fill="#000" opacity="1">18</text><text text-anchor="end" transform="translate(243.25,7) rotate(270) translate(0,3)" font-family="sans-serif" font-size="10px" fill="#000" opacity="1">19</text></g><g class="mark-rule role-axis-domain" pointer-events="none"><line transform="translate(0,0)" x2="250" y2="0" stroke="#888" stroke-width="1" opacity="1"/></g><g class="mark-text role-axis-title" pointer-events="none"><text text-anchor="middle" transform="translate(125,32.733333587646484)" font-family="sans-serif" font-size="11px" font-weight="bold" fill="#000" opacity="1">Window</text></g></g><path class="foreground" aria-hidden="true" d="" pointer-events="none" display="none"/></g></g><g class="mark-group role-axis" role="graphics-symbol" aria-roledescription="axis" aria-label="Y-axis titled 'Masking' for a discrete scale with 20 values: 0, 1, 2, 3, 4, ending with 19"><g transform="translate(0.5,0.5)"><path class="background" aria-hidden="true" d="M0,0h0v0h0Z" pointer-events="none"/><g><g class="mark-rule role-axis-tick" pointer-events="none"><line transform="translate(0,6)" x2="-5" y2="0" stroke="#888" stroke-width="1" opacity="1"/><line transform="translate(0,18)" x2="-5" y2="0" stroke="#888" stroke-width="1" opacity="1"/><line transform="translate(0,31)" x2="-5" y2="0" stroke="#888" stroke-width="1" opacity="1"/><line transform="translate(0,43)" x2="-5" y2="0" stroke="#888" stroke-width="1" opacity="1"/><line transform="translate(0,56)" x2="-5" y2="0" stroke="#888" stroke-width="1" opacity="1"/><line transform="translate(0,68)" x2="-5" y2="0" stroke="#888" stroke-width="1" opacity="1"/><line transform="translate(0,81)" x2="-5" y2="0" stroke="#888" stroke-width="1" opacity="1"/><line transform="translate(0,93)" x2="-5" y2="0" stroke="#888" stroke-width="1" opacity="1"/><line transform="translate(0,106)" x2="-5" y2="0" stroke="#888" stroke-width="1" opacity="1"/><line transform="translate(0,118)" x2="-5" y2="0" stroke="#888" stroke-width="1" opacity="1"/><line transform="translate(0,131)" x2="-5" y2="0" stroke="#888" stroke-width="1" opacity="1"/><line transform="translate(0,143)" x2="-5" y2="0" stroke="#888" stroke-width="1" opacity="1"/><line transform="translate(0,156)" x2="-5" y2="0" stroke="#888" stroke-width="1" opacity="1"/><line transform="translate(0,168)" x2="-5" y2="0" stroke="#888" stroke-width="1" opacity="1"/><line transform="translate(0,181)" x2="-5" y2="0" stroke="#888" stroke-width="1" opacity="1"/><line transform="translate(0,193)" x2="-5" y2="0" stroke="#888" stroke-width="1" opacity="1"/><line transform="translate(0,206)" x2="-5" y2="0" stroke="#888" stroke-width="1" opacity="1"/><line transform="translate(0,218)" x2="-5" y2="0" stroke="#888" stroke-width="1" opacity="1"/><line transform="translate(0,231)" x2="-5" y2="0" stroke="#888" stroke-width="1" opacity="1"/><line transform="translate(0,243)" x2="-5" y2="0" stroke="#888" stroke-width="1" opacity="1"/></g><g class="mark-text role-axis-label" pointer-events="none"><text text-anchor="end" transform="translate(-7,8.75)" font-family="sans-serif" font-size="10px" fill="#000" opacity="1">0</text><text text-anchor="end" transform="translate(-7,21.25)" font-family="sans-serif" font-size="10px" fill="#000" opacity="1">1</text><text text-anchor="end" transform="translate(-7,33.75)" font-family="sans-serif" font-size="10px" fill="#000" opacity="1">2</text><text text-anchor="end" transform="translate(-7,46.25)" font-family="sans-serif" font-size="10px" fill="#000" opacity="1">3</text><text text-anchor="end" transform="translate(-7,58.75)" font-family="sans-serif" font-size="10px" fill="#000" opacity="1">4</text><text text-anchor="end" transform="translate(-7,71.25)" font-family="sans-serif" font-size="10px" fill="#000" opacity="1">5</text><text text-anchor="end" transform="translate(-7,83.75)" font-family="sans-serif" font-size="10px" fill="#000" opacity="1">6</text><text text-anchor="end" transform="translate(-7,96.25)" font-family="sans-serif" font-size="10px" fill="#000" opacity="1">7</text><text text-anchor="end" transform="translate(-7,108.75)" font-family="sans-serif" font-size="10px" fill="#000" opacity="1">8</text><text text-anchor="end" transform="translate(-7,121.25)" font-family="sans-serif" font-size="10px" fill="#000" opacity="1">9</text><text text-anchor="end" transform="translate(-7,133.75)" font-family="sans-serif" font-size="10px" fill="#000" opacity="1">10</text><text text-anchor="end" transform="translate(-7,146.25)" font-family="sans-serif" font-size="10px" fill="#000" opacity="1">11</text><text text-anchor="end" transform="translate(-7,158.75)" font-family="sans-serif" font-size="10px" fill="#000" opacity="1">12</text><text text-anchor="end" transform="translate(-7,171.25)" font-family="sans-serif" font-size="10px" fill="#000" opacity="1">13</text><text text-anchor="end" transform="translate(-7,183.75)" font-family="sans-serif" font-size="10px" fill="#000" opacity="1">14</text><text text-anchor="end" transform="translate(-7,196.25)" font-family="sans-serif" font-size="10px" fill="#000" opacity="1">15</text><text text-anchor="end" transform="translate(-7,208.75)" font-family="sans-serif" font-size="10px" fill="#000" opacity="1">16</text><text text-anchor="end" transform="translate(-7,221.25)" font-family="sans-serif" font-size="10px" fill="#000" opacity="1">17</text><text text-anchor="end" transform="translate(-7,233.75)" font-family="sans-serif" font-size="10px" fill="#000" opacity="1">18</text><text text-anchor="end" transform="translate(-7,246.25)" font-family="sans-serif" font-size="10px" fill="#000" opacity="1">19</text></g><g class="mark-rule role-axis-domain" pointer-events="none"><line transform="translate(0,0)" x2="0" y2="250" stroke="#888" stroke-width="1" opacity="1"/></g><g class="mark-text role-axis-title" pointer-events="none"><text text-anchor="middle" transform="translate(-23.733333587646484,125) rotate(-90) translate(0,-2)" font-family="sans-serif" font-size="11px" font-weight="bold" fill="#000" opacity="1">Masking</text></g></g><path class="foreground" aria-hidden="true" d="" pointer-events="none" display="none"/></g></g></g><path class="foreground" aria-hidden="true" d="" display="none"/></g></g></g><defs><linearGradient id="gradient_0" x1="0" x2="0" y1="1" y2="0"><stop offset="0" stop-color="rgb(68, 1, 84)"/><stop offset="0.05" stop-color="rgb(72, 20, 103)"/><stop offset="0.1" stop-color="rgb(72, 37, 117)"/><stop offset="0.15" stop-color="rgb(70, 53, 128)"/><stop offset="0.2" stop-color="rgb(65, 68, 135)"/><stop offset="0.25" stop-color="rgb(59, 82, 139)"/><stop offset="0.3" stop-color="rgb(53, 96, 141)"/><stop offset="0.35" stop-color="rgb(47, 108, 142)"/><stop offset="0.4" stop-color="rgb(42, 120, 142)"/><stop offset="0.45" stop-color="rgb(37, 133, 142)"/><stop offset="0.5" stop-color="rgb(33, 145, 141)"/><stop offset="0.55" stop-color="rgb(31, 156, 138)"/><stop offset="0.6" stop-color="rgb(34, 168, 132)"/><stop offset="0.65" stop-color="rgb(48, 180, 124)"/><stop offset="0.7" stop-color="rgb(67, 191, 113)"/><stop offset="0.75" stop-color="rgb(93, 201, 99)"/><stop offset="0.8" stop-color="rgb(122, 209, 81)"/><stop offset="0.85" stop-color="rgb(154, 217, 61)"/><stop offset="0.9" stop-color="rgb(188, 223, 39)"/><stop offset="0.95" stop-color="rgb(222, 228, 27)"/><stop offset="1" stop-color="rgb(253, 231, 37)"/></linearGradient></defs></svg>