<?xml version="1.0" encoding="UTF-8" standalone="no"?>
<!DOCTYPE svg PUBLIC "-//W3C//DTD SVG 1.0//EN" "http://www.w3.org/TR/2001/PR-SVG-20010719/DTD/svg10.dtd">
<svg width="38cm" height="13cm" viewBox="189 102 752 256" xmlns="http://www.w3.org/2000/svg" xmlns:xlink="http://www.w3.org/1999/xlink">
  <g id="Background">
    <text font-size="12.7998" style="fill: #000000; fill-opacity: 1; stroke: none;text-anchor:start;font-family:sans-serif;font-style:normal;font-weight:normal" x="214" y="244">
      <tspan x="214" y="244">Excellent</tspan>
      <tspan x="214" y="260">opening</tspan>
    </text>
    <text font-size="12.7998" style="fill: #000000; fill-opacity: 1; stroke: none;text-anchor:start;font-family:sans-serif;font-style:normal;font-weight:normal" x="275" y="252">
      <tspan x="275" y="252">AND</tspan>
    </text>
    <text font-size="12.7998" style="fill: #000000; fill-opacity: 1; stroke: none;text-anchor:start;font-family:sans-serif;font-style:normal;font-weight:normal" x="310" y="244">
      <tspan x="310" y="244">Passable</tspan>
      <tspan x="310" y="260">middlegame</tspan>
    </text>
    <text font-size="12.7998" style="fill: #000000; fill-opacity: 1; stroke: none;text-anchor:start;font-family:sans-serif;font-style:normal;font-weight:normal" x="396" y="252">
      <tspan x="396" y="252">AND</tspan>
    </text>
    <text font-size="12.7998" style="fill: #000000; fill-opacity: 1; stroke: none;text-anchor:start;font-family:sans-serif;font-style:normal;font-weight:normal" x="430" y="244">
      <tspan x="430" y="244">Passable</tspan>
      <tspan x="430" y="260">endgame</tspan>
    </text>
    <text font-size="12.7998" style="fill: #000000; fill-opacity: 1; stroke: none;text-anchor:start;font-family:sans-serif;font-style:normal;font-weight:normal" x="523" y="252">
      <tspan x="523" y="252">OR</tspan>
    </text>
    <path style="fill: none; stroke-opacity: 1; stroke-width: 2; stroke: #000000" d="M 200,220 A 50.645,50.645 0 0 0 200,280"/>
    <path style="fill: none; stroke-opacity: 1; stroke-width: 2; stroke: #000000" d="M 500,220 A 50.645,50.645 0 0 1 500,280"/>
    <text font-size="12.7998" style="fill: #000000; fill-opacity: 1; stroke: none;text-anchor:start;font-family:sans-serif;font-style:normal;font-weight:normal" x="561" y="244">
      <tspan x="561" y="244">Passable</tspan>
      <tspan x="561" y="260">opening</tspan>
    </text>
    <text font-size="12.7998" style="fill: #000000; fill-opacity: 1; stroke: none;text-anchor:start;font-family:sans-serif;font-style:normal;font-weight:normal" x="624" y="252">
      <tspan x="624" y="252">AND</tspan>
    </text>
    <text font-size="12.7998" style="fill: #000000; fill-opacity: 1; stroke: none;text-anchor:start;font-family:sans-serif;font-style:normal;font-weight:normal" x="658" y="244">
      <tspan x="658" y="244">Excellent</tspan>
      <tspan x="658" y="260">middlegame</tspan>
    </text>
    <text font-size="12.7998" style="fill: #000000; fill-opacity: 1; stroke: none;text-anchor:start;font-family:sans-serif;font-style:normal;font-weight:normal" x="743" y="252">
      <tspan x="743" y="252">AND</tspan>
    </text>
    <text font-size="12.7998" style="fill: #000000; fill-opacity: 1; stroke: none;text-anchor:start;font-family:sans-serif;font-style:normal;font-weight:normal" x="778" y="244">
      <tspan x="778" y="244">Passable</tspan>
      <tspan x="778" y="260">endgame</tspan>
    </text>
    <path style="fill: none; stroke-opacity: 1; stroke-width: 2; stroke: #000000" d="M 560,220 A 50.645,50.645 0 0 0 560,280"/>
    <path style="fill: none; stroke-opacity: 1; stroke-width: 2; stroke: #000000" d="M 840,220 A 50.645,50.645 0 0 1 840,280"/>
    <text font-size="12.7998" style="fill: #000000; fill-opacity: 1; stroke: none;text-anchor:start;font-family:sans-serif;font-style:normal;font-weight:normal" x="864" y="255">
      <tspan x="864" y="255">OR</tspan>
    </text>
    <text font-size="12.7998" style="fill: #000000; fill-opacity: 1; stroke: none;text-anchor:start;font-family:sans-serif;font-style:normal;font-weight:normal" x="894" y="244">
      <tspan x="894" y="244">Chess</tspan>
      <tspan x="894" y="260">engine</tspan>
    </text>
    <path style="fill: none; stroke-opacity: 1; stroke-width: 2; stroke: #000000" d="M 200 200 C 200,140 580,200 580,120"/>
    <path style="fill: none; stroke-opacity: 1; stroke-width: 2; stroke: #000000" d="M 940 200 C 940,140 580,200 580,120"/>
    <text font-size="12.7998" style="fill: #000000; fill-opacity: 1; stroke: none;text-anchor:start;font-family:sans-serif;font-style:normal;font-weight:normal" x="534" y="114">
      <tspan x="534" y="114">Causal principle</tspan>
    </text>
    <path style="fill: none; stroke-opacity: 1; stroke-width: 2; stroke: #000000" d="M 220 280 C 220,320 240,300 240,340"/>
    <text font-size="12.7998" style="fill: #000000; fill-opacity: 1; stroke: none;text-anchor:start;font-family:sans-serif;font-style:normal;font-weight:normal" x="211" y="355">
      <tspan x="211" y="355">Causal role</tspan>
    </text>
    <path style="fill: none; stroke-opacity: 1; stroke-width: 2; stroke: #000000" d="M 340 280 C 340,320 380,300 380,340"/>
    <path style="fill: none; stroke-opacity: 1; stroke-width: 2; stroke: #000000" d="M 460 280 C 460,320 420,300 420,340"/>
    <text font-size="12.7998" style="fill: #000000; fill-opacity: 1; stroke: none;text-anchor:start;font-family:sans-serif;font-style:normal;font-weight:normal" x="355" y="353">
      <tspan x="355" y="353">Support factors</tspan>
    </text>
    <path style="fill: none; stroke-opacity: 1; stroke-width: 2; stroke: #000000" d="M 480 280 C 480,320 540,300 540,340"/>
    <path style="fill: none; stroke-opacity: 1; stroke-width: 2; stroke: #000000" d="M 600 280 C 600,320 560,300 560,340"/>
    <path style="fill: none; stroke-opacity: 1; stroke-width: 2; stroke: #000000" d="M 660 280 C 660,320 580,300 580,340"/>
    <text font-size="12.7998" style="fill: #000000; fill-opacity: 1; stroke: none;text-anchor:start;font-family:sans-serif;font-style:normal;font-weight:normal" x="516" y="352">
      <tspan x="516" y="352">Causal factors</tspan>
    </text>
    <path style="fill: none; stroke-opacity: 1; stroke-width: 2; stroke: #000000" d="M 580 280 C 580,320 700,300 700,340"/>
    <path style="fill: none; stroke-opacity: 1; stroke-width: 2; stroke: #000000" d="M 820 280 C 820,320 700,300 700,340"/>
    <text font-size="12.7998" style="fill: #000000; fill-opacity: 1; stroke: none;text-anchor:start;font-family:sans-serif;font-style:normal;font-weight:normal" x="642" y="351">
      <tspan x="642" y="351">Causal subprinciples</tspan>
    </text>
    <path style="fill: none; stroke-opacity: 1; stroke-width: 2; stroke: #000000" d="M 920 280 C 920,320 720,300 720,340"/>
  </g>
</svg>
