<?xml version="1.0" standalone="no"?><!DOCTYPE svg PUBLIC "-//W3C//DTD SVG 1.1//EN" "http://www.w3.org/Graphics/SVG/1.1/DTD/svg11.dtd"><svg width="434pt" height="636pt" viewBox="0.00 0.00 434.00 636.00" xmlns:xlink="http://www.w3.org/1999/xlink" version="1.1" xmlns="http://www.w3.org/2000/svg"><defs xmlns="http://www.w3.org/1999/xhtml"><style type="text/css"><![CDATA[
button { margin: 4px 5px 4px 4px; cursor: pointer; font-size: 70%; }]]></style></defs>
<g id="graph1" class="graph" transform="scale(1 1) rotate(0) translate(4 632)">
<title>G</title>
<polygon fill="none" stroke="none" points="-4,5 -4,-632 431,-632 431,5 -4,5"/>
<!-- a -->
<g id="node1" class="node"><title>a</title>
<ellipse fill="none" stroke="black" cx="197" cy="-598" rx="92.1791" ry="29.3315"/>
<text text-anchor="middle" x="197" y="-602.2" font-family="Times,serif" font-size="14.00">Observe a collective</text>
<text text-anchor="middle" x="197" y="-585.4" font-family="Times,serif" font-size="14.00">pattern of behavior</text>
</g>
<!-- i -->
<g id="node2" class="node"><title>i</title>
<polygon fill="none" stroke="black" points="197,-531.7 111.69,-490 197,-448.3 282.31,-490 197,-531.7"/>
<text text-anchor="middle" x="197" y="-494.2" font-family="Times,serif" font-size="14.00">Is it socially</text>
<text text-anchor="middle" x="197" y="-477.4" font-family="Times,serif" font-size="14.00">conditional?</text>
</g>
<!-- a&#45;&gt;i -->
<g id="edge2" class="edge"><title>a-&gt;i</title>
<path fill="none" stroke="black" d="M197,-568.315C197,-560.118 197,-550.931 197,-541.829"/>
<polygon fill="black" stroke="black" points="200.5,-541.646 197,-531.646 193.5,-541.646 200.5,-541.646"/>
</g>
<!-- b -->
<g id="node3" class="node"><title>b</title>
<polygon fill="none" stroke="black" points="181.97,-412.401 50.0298,-412.401 50.0298,-353.599 181.97,-353.599 181.97,-412.401"/>
<text text-anchor="middle" x="116" y="-395.6" font-family="Times,serif" font-size="14.00">People prefer to</text>
<text text-anchor="middle" x="116" y="-378.8" font-family="Times,serif" font-size="14.00">follow it irrespective</text>
<text text-anchor="middle" x="116" y="-362" font-family="Times,serif" font-size="14.00">of what others do</text>
</g>
<!-- i&#45;&gt;b -->
<g id="edge4" class="edge"><title>i-&gt;b</title>
<path fill="none" stroke="black" d="M174.005,-459.192C164.72,-447.156 153.915,-433.15 144.165,-420.51"/>
<polygon fill="black" stroke="black" points="146.816,-418.216 137.936,-412.436 141.273,-422.492 146.816,-418.216"/>
</g>
<!-- c -->
<g id="node4" class="node"><title>c</title>
<polygon fill="none" stroke="black" points="345.561,-412.401 212.439,-412.401 212.439,-353.599 345.561,-353.599 345.561,-412.401"/>
<text text-anchor="middle" x="279" y="-395.6" font-family="Times,serif" font-size="14.00">People prefer to</text>
<text text-anchor="middle" x="279" y="-378.8" font-family="Times,serif" font-size="14.00">follow it if they have</text>
<text text-anchor="middle" x="279" y="-362" font-family="Times,serif" font-size="14.00">social expectations</text>
</g>
<!-- i&#45;&gt;c -->
<g id="edge6" class="edge"><title>i-&gt;c</title>
<path fill="none" stroke="black" d="M220.06,-459.472C229.541,-447.331 240.617,-433.149 250.592,-420.376"/>
<polygon fill="black" stroke="black" points="253.563,-422.258 256.96,-412.222 248.046,-417.949 253.563,-422.258"/>
</g>
<!-- d -->
<g id="node5" class="node"><title>d</title>
<ellipse fill="none" stroke="black" cx="91" cy="-259" rx="90.9502" ry="41.0911"/>
<text text-anchor="middle" x="91" y="-271.6" font-family="Times,serif" font-size="14.00">Collective custom,</text>
<text text-anchor="middle" x="91" y="-254.8" font-family="Times,serif" font-size="14.00">shared moral rule or</text>
<text text-anchor="middle" x="91" y="-238" font-family="Times,serif" font-size="14.00">legal injunction</text>
</g>
<!-- b&#45;&gt;d -->
<g id="edge8" class="edge"><title>b-&gt;d</title>
<path fill="none" stroke="black" d="M110.202,-353.704C107.553,-340.779 104.334,-325.072 101.295,-310.241"/>
<polygon fill="black" stroke="black" points="104.666,-309.252 99.2292,-300.159 97.808,-310.658 104.666,-309.252"/>
</g>
<!-- j -->
<g id="node6" class="node"><title>j</title>
<polygon fill="none" stroke="black" points="292,-317.3 199.716,-259 292,-200.7 384.284,-259 292,-317.3"/>
<text text-anchor="middle" x="292" y="-271.6" font-family="Times,serif" font-size="14.00">What type</text>
<text text-anchor="middle" x="292" y="-254.8" font-family="Times,serif" font-size="14.00">of social</text>
<text text-anchor="middle" x="292" y="-238" font-family="Times,serif" font-size="14.00">expectations?</text>
</g>
<!-- c&#45;&gt;j -->
<g id="edge10" class="edge"><title>c-&gt;j</title>
<path fill="none" stroke="black" d="M282.015,-353.704C282.97,-344.742 284.067,-334.444 285.177,-324.027"/>
<polygon fill="black" stroke="black" points="288.662,-324.358 286.241,-314.044 281.701,-323.617 288.662,-324.358"/>
</g>
<!-- e -->
<g id="node7" class="node"><title>e</title>
<polygon fill="none" stroke="black" points="289.01,-147.401 144.99,-147.401 144.99,-88.5986 289.01,-88.5986 289.01,-147.401"/>
<text text-anchor="middle" x="217" y="-130.6" font-family="Times,serif" font-size="14.00">Empirical expectations</text>
<text text-anchor="middle" x="217" y="-113.8" font-family="Times,serif" font-size="14.00">suffice to motivate</text>
<text text-anchor="middle" x="217" y="-97" font-family="Times,serif" font-size="14.00">action</text>
</g>
<!-- j&#45;&gt;e -->
<g id="edge12" class="edge"><title>j-&gt;e</title>
<path fill="none" stroke="black" d="M268.886,-215.161C258.77,-196.413 247.008,-174.614 237.242,-156.516"/>
<polygon fill="black" stroke="black" points="240.166,-154.563 232.337,-147.425 234.005,-157.887 240.166,-154.563"/>
</g>
<!-- f -->
<g id="node8" class="node"><title>f</title>
<polygon fill="none" stroke="black" points="420.483,-164 311.517,-164 311.517,-72 420.483,-72 420.483,-164"/>
<text text-anchor="middle" x="366" y="-147.4" font-family="Times,serif" font-size="14.00">Empirical and</text>
<text text-anchor="middle" x="366" y="-130.6" font-family="Times,serif" font-size="14.00">normative</text>
<text text-anchor="middle" x="366" y="-113.8" font-family="Times,serif" font-size="14.00">expectations are</text>
<text text-anchor="middle" x="366" y="-97" font-family="Times,serif" font-size="14.00">need to motivate</text>
<text text-anchor="middle" x="366" y="-80.2" font-family="Times,serif" font-size="14.00">action</text>
</g>
<!-- j&#45;&gt;f -->
<g id="edge14" class="edge"><title>j-&gt;f</title>
<path fill="none" stroke="black" d="M315.008,-214.781C322.039,-201.576 329.86,-186.885 337.223,-173.055"/>
<polygon fill="black" stroke="black" points="340.372,-174.586 341.982,-164.114 334.193,-171.297 340.372,-174.586"/>
</g>
<!-- g -->
<g id="node9" class="node"><title>g</title>
<ellipse fill="none" stroke="black" cx="215" cy="-18" rx="78.0173" ry="18"/>
<text text-anchor="middle" x="215" y="-13.8" font-family="Times,serif" font-size="14.00">Descriptive norm</text>
</g>
<!-- e&#45;&gt;g -->
<g id="edge16" class="edge"><title>e-&gt;g</title>
<path fill="none" stroke="black" d="M216.422,-88.6543C216.151,-75.4052 215.83,-59.6901 215.562,-46.5431"/>
<polygon fill="black" stroke="black" points="219.055,-46.1405 215.351,-36.214 212.056,-46.2834 219.055,-46.1405"/>
</g>
<!-- h -->
<g id="node10" class="node"><title>h</title>
<ellipse fill="none" stroke="black" cx="369" cy="-18" rx="57.4585" ry="18"/>
<text text-anchor="middle" x="369" y="-13.8" font-family="Times,serif" font-size="14.00">Social norm</text>
</g>
<!-- f&#45;&gt;h -->
<g id="edge18" class="edge"><title>f-&gt;h</title>
<path fill="none" stroke="black" d="M367.386,-71.7292C367.652,-63.0404 367.923,-54.1943 368.165,-46.2922"/>
<polygon fill="black" stroke="black" points="371.666,-46.3077 368.473,-36.2053 364.669,-46.0934 371.666,-46.3077"/>
</g>
</g>
</svg>
