<?xml version="1.0" encoding="UTF-8" standalone="no"?><!DOCTYPE svg PUBLIC "-//W3C//DTD SVG 1.1//EN" "http://www.w3.org/Graphics/SVG/1.1/DTD/svg11.dtd"><!-- Generated by graphviz version 2.40.1 (20161225.0304)
 --><!-- Title: G Pages: 1 --><svg xmlns="http://www.w3.org/2000/svg" xmlns:xlink="http://www.w3.org/1999/xlink" width="467pt" height="310pt" viewBox="0.00 0.00 467.48 310.40">
<g id="graph0" class="graph" transform="scale(1 1) rotate(0) translate(4 306.4)">
<title>G</title>
<polygon fill="transparent" stroke="transparent" points="-4,4 -4,-306.4 463.4832,-306.4 463.4832,4 -4,4"/>
<!-- q0 -->
<g id="node1" class="node">
<title>q0</title>
<ellipse fill="none" stroke="#000000" cx="119" cy="-284.4" rx="27" ry="18"/>
<text text-anchor="start" x="110.4467" y="-281.2" font-family="Times,serif" font-size="14.00" fill="#000000">Q</text>
<text text-anchor="start" x="120.5533" y="-281.2" font-family="Times,serif" baseline-shift="sub" font-size="14.00" fill="#000000">0</text>
</g>
<!-- q1 -->
<g id="node2" class="node">
<title>q1</title>
<ellipse fill="none" stroke="#000000" cx="27" cy="-195.6" rx="27" ry="18"/>
<text text-anchor="start" x="15.7244" y="-192.4" font-family="Times,serif" font-size="14.00" fill="#000000">Q</text>
<text text-anchor="start" x="25.831" y="-192.4" font-family="Times,serif" baseline-shift="sub" font-size="14.00" fill="#000000">1</text>
<text text-anchor="start" x="32.831" y="-192.4" font-family="Times,serif" font-size="14.00" fill="#000000">s</text>
</g>
<!-- q0&#45;&gt;q1 -->
<g id="edge2" class="edge">
<title>q0-&gt;q1</title>
<path fill="none" stroke="#000000" d="M93.6134,-278.1087C68.6974,-271.3595 33.3018,-260.0334 25.3092,-248.4 20.3616,-241.1987 19.3305,-232.0452 19.9861,-223.3897"/>
<polygon fill="#000000" stroke="#000000" points="23.4859,-223.6454 21.4724,-213.2436 16.5598,-222.6307 23.4859,-223.6454"/>
<text text-anchor="start" x="26" y="-236.8" font-family="Times,serif" font-size="14.00" fill="#000000">preservation</text>
<text text-anchor="start" x="95.1908" y="-236.8" font-family="Times,serif" baseline-shift="sub" font-size="14.00" fill="#000000">↓</text>
</g>
<!-- a0 -->
<g id="node3" class="node">
<title>a0</title>
<ellipse fill="none" stroke="#000000" cx="249" cy="-284.4" rx="27" ry="18"/>
<text text-anchor="start" x="240.4467" y="-281.2" font-family="Times,serif" font-size="14.00" fill="#000000">A</text>
<text text-anchor="start" x="250.5533" y="-281.2" font-family="Times,serif" baseline-shift="sub" font-size="14.00" fill="#000000">0</text>
</g>
<!-- q0&#45;&gt;a0 -->
<g id="edge1" class="edge">
<title>q0-&gt;a0</title>
<path fill="none" stroke="#000000" d="M146.168,-284.4C167.9972,-284.4 189.8264,-284.4 211.6556,-284.4"/>
<polygon fill="#000000" stroke="#000000" points="211.6853,-287.9001 221.6852,-284.4 211.6852,-280.9001 211.6853,-287.9001"/>
</g>
<!-- q2 -->
<g id="node7" class="node">
<title>q2</title>
<ellipse fill="none" stroke="#000000" cx="97" cy="-18" rx="27" ry="18"/>
<text text-anchor="start" x="85.7244" y="-14.8" font-family="Times,serif" font-size="14.00" fill="#000000">Q</text>
<text text-anchor="start" x="95.831" y="-14.8" font-family="Times,serif" baseline-shift="sub" font-size="14.00" fill="#000000">n</text>
<text text-anchor="start" x="102.831" y="-14.8" font-family="Times,serif" font-size="14.00" fill="#000000">s</text>
</g>
<!-- q0&#45;&gt;q2 -->
<g id="edge9" class="edge">
<title>q0-&gt;q2</title>
<path fill="none" stroke="#000000" stroke-dasharray="5,2" d="M118.8709,-266.3789C118.3805,-227.4301 116.047,-132.5733 105,-54 104.6203,-51.2995 104.1455,-48.5011 103.6178,-45.712"/>
<polygon fill="#000000" stroke="#000000" points="107.0264,-44.913 101.5496,-35.8435 100.1753,-46.3488 107.0264,-44.913"/>
<text text-anchor="start" x="115" y="-148" font-family="Times,serif" font-size="14.00" fill="#000000">PRESERVATION</text>
<text text-anchor="start" x="219.9832" y="-148" font-family="Times,serif" baseline-shift="sub" font-size="14.00" fill="#000000">↓</text>
</g>
<!-- qd -->
<g id="node5" class="node">
<title>qd</title>
<ellipse fill="none" stroke="#000000" cx="43" cy="-106.8" rx="27" ry="18"/>
<text text-anchor="middle" x="43" y="-102.6" font-family="Times,serif" font-size="14.00" fill="#000000">...</text>
</g>
<!-- q1&#45;&gt;qd -->
<g id="edge6" class="edge">
<title>q1-&gt;qd</title>
<path fill="none" stroke="#000000" d="M30.2378,-177.63C32.4499,-165.353 35.4257,-148.8372 37.9474,-134.8421"/>
<polygon fill="#000000" stroke="#000000" points="41.4382,-135.2055 39.767,-124.7433 34.5491,-133.9641 41.4382,-135.2055"/>
</g>
<!-- a1 -->
<g id="node4" class="node">
<title>a1</title>
<ellipse fill="none" stroke="#000000" cx="249" cy="-195.6" rx="27" ry="18"/>
<text text-anchor="start" x="237.7244" y="-192.4" font-family="Times,serif" font-size="14.00" fill="#000000">A</text>
<text text-anchor="start" x="247.831" y="-192.4" font-family="Times,serif" baseline-shift="sub" font-size="14.00" fill="#000000">1</text>
<text text-anchor="start" x="254.831" y="-192.4" font-family="Times,serif" font-size="14.00" fill="#000000">s</text>
</g>
<!-- a1&#45;&gt;a0 -->
<g id="edge3" class="edge">
<title>a1-&gt;a0</title>
<path fill="none" stroke="#000000" d="M249,-213.672C249,-225.8243 249,-242.0958 249,-255.968"/>
<polygon fill="#000000" stroke="#000000" points="245.5001,-256.0005 249,-266.0006 252.5001,-256.0006 245.5001,-256.0005"/>
<text text-anchor="start" x="249" y="-236.8" font-family="Times,serif" font-size="14.00" fill="#000000">progress</text>
<text text-anchor="start" x="296.425" y="-236.8" font-family="Times,serif" baseline-shift="sub" font-size="14.00" fill="#000000">↑</text>
</g>
<!-- qd&#45;&gt;q2 -->
<g id="edge7" class="edge">
<title>qd-&gt;q2</title>
<path fill="none" stroke="#000000" d="M40.7377,-88.5929C40.2647,-77.875 41.2242,-64.4221 47.075,-54 51.5491,-46.0302 58.6066,-39.3673 66.0217,-34.0278"/>
<polygon fill="#000000" stroke="#000000" points="68.2677,-36.7431 74.7574,-28.3684 64.4616,-30.8682 68.2677,-36.7431"/>
<text text-anchor="start" x="48" y="-59.2" font-family="Times,serif" font-size="14.00" fill="#000000">progress</text>
<text text-anchor="start" x="95.425" y="-59.2" font-family="Times,serif" baseline-shift="sub" font-size="14.00" fill="#000000">↓</text>
</g>
<!-- ad -->
<g id="node6" class="node">
<title>ad</title>
<ellipse fill="none" stroke="#000000" cx="238" cy="-106.8" rx="27" ry="18"/>
<text text-anchor="middle" x="238" y="-102.6" font-family="Times,serif" font-size="14.00" fill="#000000">...</text>
</g>
<!-- ad&#45;&gt;a1 -->
<g id="edge4" class="edge">
<title>ad-&gt;a1</title>
<path fill="none" stroke="#000000" d="M240.2227,-124.7433C241.7427,-137.0141 243.7885,-153.5287 245.5225,-167.5274"/>
<polygon fill="#000000" stroke="#000000" points="242.0711,-168.1361 246.774,-177.63 249.018,-167.2755 242.0711,-168.1361"/>
</g>
<!-- a2 -->
<g id="node8" class="node">
<title>a2</title>
<ellipse fill="none" stroke="#000000" cx="253" cy="-18" rx="27" ry="18"/>
<text text-anchor="start" x="241.7244" y="-14.8" font-family="Times,serif" font-size="14.00" fill="#000000">A</text>
<text text-anchor="start" x="251.831" y="-14.8" font-family="Times,serif" baseline-shift="sub" font-size="14.00" fill="#000000">n</text>
<text text-anchor="start" x="258.831" y="-14.8" font-family="Times,serif" font-size="14.00" fill="#000000">s</text>
</g>
<!-- q2&#45;&gt;a2 -->
<g id="edge8" class="edge">
<title>q2-&gt;a2</title>
<path fill="none" stroke="#000000" d="M124.1731,-18C149.4849,-18 187.4449,-18 215.6092,-18"/>
<polygon fill="#000000" stroke="#000000" points="215.877,-21.5001 225.877,-18 215.877,-14.5001 215.877,-21.5001"/>
<text text-anchor="start" x="132.9993" y="-26.2" font-family="Times,serif" font-size="14.00" fill="#000000">PROGRESS</text>
<text text-anchor="start" x="203.7861" y="-26.2" font-family="Times,serif" baseline-shift="sub" font-size="14.00" fill="#000000">qa</text>
</g>
<!-- a2&#45;&gt;a0 -->
<g id="edge10" class="edge">
<title>a2-&gt;a0</title>
<path fill="none" stroke="#000000" stroke-dasharray="5,2" d="M277.5612,-25.9841C290.5729,-31.61 305.3988,-40.5748 313,-54 355.5714,-129.1893 354.5309,-173.7621 311,-248.4 304.6803,-259.2358 293.7275,-267.1193 282.7691,-272.6957"/>
<polygon fill="#000000" stroke="#000000" points="281.3081,-269.5151 273.6642,-276.8514 284.2147,-275.8832 281.3081,-269.5151"/>
<text text-anchor="start" x="344" y="-148" font-family="Times,serif" font-size="14.00" fill="#000000">PRESERVATION</text>
<text text-anchor="start" x="448.9832" y="-148" font-family="Times,serif" baseline-shift="sub" font-size="14.00" fill="#000000">↑</text>
</g>
<!-- a2&#45;&gt;ad -->
<g id="edge5" class="edge">
<title>a2-&gt;ad</title>
<path fill="none" stroke="#000000" d="M241.7325,-34.4828C238.329,-40.3752 235.0381,-47.2361 233.3092,-54 231.2808,-61.9353 231.2297,-70.7348 232.0263,-78.8384"/>
<polygon fill="#000000" stroke="#000000" points="228.5926,-79.5524 233.4667,-88.9595 235.5227,-78.566 228.5926,-79.5524"/>
<text text-anchor="start" x="233" y="-59.2" font-family="Times,serif" font-size="14.00" fill="#000000">preservation</text>
<text text-anchor="start" x="302.1908" y="-59.2" font-family="Times,serif" baseline-shift="sub" font-size="14.00" fill="#000000">↑</text>
</g>
</g>
</svg>
