<?xml version="1.0" encoding="UTF-8" standalone="no"?><!DOCTYPE svg PUBLIC "-//W3C//DTD SVG 1.1//EN" "http://www.w3.org/Graphics/SVG/1.1/DTD/svg11.dtd"><!-- Generated by graphviz version 2.40.1 (20161225.0304)
 --><!-- Title: G Pages: 1 --><svg xmlns="http://www.w3.org/2000/svg" xmlns:xlink="http://www.w3.org/1999/xlink" width="371pt" height="279pt" viewBox="0.00 0.00 371.48 278.80">
<g id="graph0" class="graph" transform="scale(1 1) rotate(0) translate(4 274.8)">
<title>G</title>
<polygon fill="transparent" stroke="transparent" points="-4,4 -4,-274.8 367.4832,-274.8 367.4832,4 -4,4"/>
<!-- q0 -->
<g id="node1" class="node">
<title>q0</title>
<ellipse fill="none" stroke="#000000" cx="82" cy="-252.8" rx="27" ry="18"/>
<text text-anchor="start" x="73.4467" y="-249.6" font-family="Times,serif" font-size="14.00" fill="#000000">Q</text>
<text text-anchor="start" x="83.5533" y="-249.6" font-family="Times,serif" baseline-shift="sub" font-size="14.00" fill="#000000">0</text>
</g>
<!-- q1 -->
<g id="node2" class="node">
<title>q1</title>
<ellipse fill="none" stroke="#000000" cx="27" cy="-179.8" rx="27" ry="18"/>
<text text-anchor="start" x="15.7244" y="-176.6" font-family="Times,serif" font-size="14.00" fill="#000000">Q</text>
<text text-anchor="start" x="25.831" y="-176.6" font-family="Times,serif" baseline-shift="sub" font-size="14.00" fill="#000000">1</text>
<text text-anchor="start" x="32.831" y="-176.6" font-family="Times,serif" font-size="14.00" fill="#000000">s</text>
</g>
<!-- q0&#45;&gt;q1 -->
<g id="edge2" class="edge">
<title>q0-&gt;q1</title>
<path fill="none" stroke="#000000" d="M69.7937,-236.5989C62.6019,-227.0534 53.3638,-214.7919 45.3127,-204.106"/>
<polygon fill="#000000" stroke="#000000" points="47.9851,-201.8365 39.1722,-195.9558 42.3943,-206.0488 47.9851,-201.8365"/>
</g>
<!-- a0 -->
<g id="node3" class="node">
<title>a0</title>
<ellipse fill="none" stroke="#000000" cx="201" cy="-252.8" rx="27" ry="18"/>
<text text-anchor="start" x="192.4467" y="-249.6" font-family="Times,serif" font-size="14.00" fill="#000000">A</text>
<text text-anchor="start" x="202.5533" y="-249.6" font-family="Times,serif" baseline-shift="sub" font-size="14.00" fill="#000000">0</text>
</g>
<!-- q0&#45;&gt;a0 -->
<g id="edge1" class="edge">
<title>q0-&gt;a0</title>
<path fill="none" stroke="#000000" d="M109.4258,-252.8C127.5349,-252.8 145.6441,-252.8 163.7533,-252.8"/>
<polygon fill="#000000" stroke="#000000" points="163.8139,-256.3001 173.8139,-252.8 163.8139,-249.3001 163.8139,-256.3001"/>
</g>
<!-- q2 -->
<g id="node7" class="node">
<title>q2</title>
<ellipse fill="none" stroke="#000000" cx="82" cy="-18" rx="27" ry="18"/>
<text text-anchor="start" x="70.7244" y="-14.8" font-family="Times,serif" font-size="14.00" fill="#000000">Q</text>
<text text-anchor="start" x="80.831" y="-14.8" font-family="Times,serif" baseline-shift="sub" font-size="14.00" fill="#000000">n</text>
<text text-anchor="start" x="87.831" y="-14.8" font-family="Times,serif" font-size="14.00" fill="#000000">s</text>
</g>
<!-- q0&#45;&gt;q2 -->
<g id="edge9" class="edge">
<title>q0-&gt;q2</title>
<path fill="none" stroke="#000000" stroke-dasharray="5,2" d="M81.86,-234.4663C81.689,-209.9729 81.4321,-165.2207 81.5168,-127 81.5774,-99.6411 81.7237,-68.4198 81.8395,-46.4244"/>
<polygon fill="#000000" stroke="#000000" points="85.341,-46.1479 81.8951,-36.1291 78.3411,-46.1101 85.341,-46.1479"/>
<text text-anchor="start" x="82" y="-132.2" font-family="Times,serif" font-size="14.00" fill="#000000">PRESERVATION</text>
<text text-anchor="start" x="186.9832" y="-132.2" font-family="Times,serif" baseline-shift="sub" font-size="14.00" fill="#000000">↓</text>
</g>
<!-- qd -->
<g id="node5" class="node">
<title>qd</title>
<ellipse fill="none" stroke="#000000" cx="27" cy="-91" rx="27" ry="18"/>
<text text-anchor="middle" x="27" y="-86.8" font-family="Times,serif" font-size="14.00" fill="#000000">...</text>
</g>
<!-- q1&#45;&gt;qd -->
<g id="edge6" class="edge">
<title>q1-&gt;qd</title>
<path fill="none" stroke="#000000" d="M27,-161.4006C27,-149.2949 27,-133.2076 27,-119.4674"/>
<polygon fill="#000000" stroke="#000000" points="30.5001,-119.072 27,-109.072 23.5001,-119.0721 30.5001,-119.072"/>
</g>
<!-- a1 -->
<g id="node4" class="node">
<title>a1</title>
<ellipse fill="none" stroke="#000000" cx="201" cy="-179.8" rx="27" ry="18"/>
<text text-anchor="start" x="189.7244" y="-176.6" font-family="Times,serif" font-size="14.00" fill="#000000">A</text>
<text text-anchor="start" x="199.831" y="-176.6" font-family="Times,serif" baseline-shift="sub" font-size="14.00" fill="#000000">1</text>
<text text-anchor="start" x="206.831" y="-176.6" font-family="Times,serif" font-size="14.00" fill="#000000">s</text>
</g>
<!-- a1&#45;&gt;a0 -->
<g id="edge3" class="edge">
<title>a1-&gt;a0</title>
<path fill="none" stroke="#000000" d="M201,-197.8904C201,-205.9687 201,-215.6769 201,-224.6688"/>
<polygon fill="#000000" stroke="#000000" points="197.5001,-224.755 201,-234.7551 204.5001,-224.7551 197.5001,-224.755"/>
</g>
<!-- qd&#45;&gt;q2 -->
<g id="edge7" class="edge">
<title>qd-&gt;q2</title>
<path fill="none" stroke="#000000" d="M39.2063,-74.7989C46.3981,-65.2534 55.6362,-52.9919 63.6873,-42.306"/>
<polygon fill="#000000" stroke="#000000" points="66.6057,-44.2488 69.8278,-34.1558 61.0149,-40.0365 66.6057,-44.2488"/>
</g>
<!-- ad -->
<g id="node6" class="node">
<title>ad</title>
<ellipse fill="none" stroke="#000000" cx="201" cy="-91" rx="27" ry="18"/>
<text text-anchor="middle" x="201" y="-86.8" font-family="Times,serif" font-size="14.00" fill="#000000">...</text>
</g>
<!-- ad&#45;&gt;a1 -->
<g id="edge4" class="edge">
<title>ad-&gt;a1</title>
<path fill="none" stroke="#000000" d="M201,-109.072C201,-121.2243 201,-137.4958 201,-151.368"/>
<polygon fill="#000000" stroke="#000000" points="197.5001,-151.4005 201,-161.4006 204.5001,-151.4006 197.5001,-151.4005"/>
</g>
<!-- a2 -->
<g id="node8" class="node">
<title>a2</title>
<ellipse fill="none" stroke="#000000" cx="201" cy="-18" rx="27" ry="18"/>
<text text-anchor="start" x="189.7244" y="-14.8" font-family="Times,serif" font-size="14.00" fill="#000000">A</text>
<text text-anchor="start" x="199.831" y="-14.8" font-family="Times,serif" baseline-shift="sub" font-size="14.00" fill="#000000">n</text>
<text text-anchor="start" x="206.831" y="-14.8" font-family="Times,serif" font-size="14.00" fill="#000000">s</text>
</g>
<!-- q2&#45;&gt;a2 -->
<g id="edge8" class="edge">
<title>q2-&gt;a2</title>
<path fill="none" stroke="#000000" d="M109.4258,-18C127.5349,-18 145.6441,-18 163.7533,-18"/>
<polygon fill="#000000" stroke="#000000" points="163.8139,-21.5001 173.8139,-18 163.8139,-14.5001 163.8139,-21.5001"/>
</g>
<!-- a2&#45;&gt;a0 -->
<g id="edge10" class="edge">
<title>a2-&gt;a0</title>
<path fill="none" stroke="#000000" stroke-dasharray="5,2" d="M214.7581,-33.583C222.9716,-43.9629 232.6303,-58.3452 237,-73 252.8492,-126.1541 252.8492,-144.6459 237,-197.8 233.6886,-208.9056 227.3398,-219.8547 220.8844,-229.024"/>
<polygon fill="#000000" stroke="#000000" points="217.9436,-227.1124 214.7581,-237.217 223.5496,-231.3043 217.9436,-227.1124"/>
<text text-anchor="start" x="248" y="-132.2" font-family="Times,serif" font-size="14.00" fill="#000000">PRESERVATION</text>
<text text-anchor="start" x="352.9832" y="-132.2" font-family="Times,serif" baseline-shift="sub" font-size="14.00" fill="#000000">↑</text>
</g>
<!-- a2&#45;&gt;ad -->
<g id="edge5" class="edge">
<title>a2-&gt;ad</title>
<path fill="none" stroke="#000000" d="M201,-36.0904C201,-44.1687 201,-53.8769 201,-62.8688"/>
<polygon fill="#000000" stroke="#000000" points="197.5001,-62.955 201,-72.9551 204.5001,-62.9551 197.5001,-62.955"/>
</g>
</g>
</svg>
