<?xml version="1.0" encoding="UTF-8" standalone="no"?><!DOCTYPE svg PUBLIC "-//W3C//DTD SVG 1.1//EN" "http://www.w3.org/Graphics/SVG/1.1/DTD/svg11.dtd"><!-- Generated by graphviz version 2.40.1 (20161225.0304)
 --><!-- Title: G Pages: 1 --><svg xmlns="http://www.w3.org/2000/svg" xmlns:xlink="http://www.w3.org/1999/xlink" width="208pt" height="133pt" viewBox="0.00 0.00 207.69 132.80">
<g id="graph0" class="graph" transform="scale(1 1) rotate(0) translate(4 128.8)">
<title>G</title>
<polygon fill="transparent" stroke="transparent" points="-4,4 -4,-128.8 203.6908,-128.8 203.6908,4 -4,4"/>
<!-- q0 -->
<g id="node1" class="node">
<title>q0</title>
<ellipse fill="none" stroke="#000000" cx="27" cy="-106.8" rx="27" ry="18"/>
<text text-anchor="start" x="18.4467" y="-103.6" font-family="Times,serif" font-size="14.00" fill="#000000">Q</text>
<text text-anchor="start" x="28.5533" y="-103.6" font-family="Times,serif" baseline-shift="sub" font-size="14.00" fill="#000000">0</text>
</g>
<!-- q1a -->
<g id="node2" class="node">
<title>q1a</title>
<ellipse fill="none" stroke="#000000" cx="27" cy="-18" rx="27" ry="18"/>
<text text-anchor="start" x="15.7244" y="-14.8" font-family="Times,serif" font-size="14.00" fill="#000000">Q</text>
<text text-anchor="start" x="25.831" y="-14.8" font-family="Times,serif" baseline-shift="sub" font-size="14.00" fill="#000000">1</text>
<text text-anchor="start" x="32.831" y="-14.8" font-family="Times,serif" font-size="14.00" fill="#000000">s</text>
</g>
<!-- q0&#45;&gt;q1a -->
<g id="edge2" class="edge">
<title>q0-&gt;q1a</title>
<path fill="none" stroke="#000000" d="M24.1534,-88.5308C23.396,-82.8633 22.6846,-76.5864 22.3092,-70.8 21.8258,-63.349 21.8258,-61.451 22.3092,-54 22.4734,-51.4684 22.702,-48.843 22.9706,-46.2158"/>
<polygon fill="#000000" stroke="#000000" points="26.448,-46.6126 24.1534,-36.2692 19.4969,-45.7859 26.448,-46.6126"/>
<text text-anchor="start" x="23" y="-59.2" font-family="Times,serif" font-size="14.00" fill="#000000">preservation</text>
<text text-anchor="start" x="92.1908" y="-59.2" font-family="Times,serif" baseline-shift="sub" font-size="14.00" fill="#000000">↓</text>
</g>
<!-- a0 -->
<g id="node3" class="node">
<title>a0</title>
<ellipse fill="none" stroke="#000000" cx="120" cy="-106.8" rx="27" ry="18"/>
<text text-anchor="start" x="111.4467" y="-103.6" font-family="Times,serif" font-size="14.00" fill="#000000">A</text>
<text text-anchor="start" x="121.5533" y="-103.6" font-family="Times,serif" baseline-shift="sub" font-size="14.00" fill="#000000">0</text>
</g>
<!-- q0&#45;&gt;a0 -->
<g id="edge1" class="edge">
<title>q0-&gt;a0</title>
<path fill="none" stroke="#000000" d="M54.2461,-106.8C63.6773,-106.8 73.1086,-106.8 82.5399,-106.8"/>
<polygon fill="#000000" stroke="#000000" points="82.7737,-110.2999 92.7738,-106.8 82.7738,-103.2999 82.7737,-110.2999"/>
</g>
<!-- a1a -->
<g id="node4" class="node">
<title>a1a</title>
<ellipse fill="none" stroke="#000000" cx="120" cy="-18" rx="27" ry="18"/>
<text text-anchor="start" x="108.7244" y="-14.8" font-family="Times,serif" font-size="14.00" fill="#000000">A</text>
<text text-anchor="start" x="118.831" y="-14.8" font-family="Times,serif" baseline-shift="sub" font-size="14.00" fill="#000000">1</text>
<text text-anchor="start" x="125.831" y="-14.8" font-family="Times,serif" font-size="14.00" fill="#000000">s</text>
</g>
<!-- q1a&#45;&gt;a1a -->
<g id="edge3" class="edge">
<title>q1a-&gt;a1a</title>
<path fill="none" stroke="#000000" d="M54.2461,-18C63.6773,-18 73.1086,-18 82.5399,-18"/>
<polygon fill="#000000" stroke="#000000" points="82.7738,-21.5001 92.7738,-18 82.7737,-14.5001 82.7738,-21.5001"/>
</g>
<!-- a1a&#45;&gt;a0 -->
<g id="edge4" class="edge">
<title>a1a-&gt;a0</title>
<path fill="none" stroke="#000000" d="M120,-36.072C120,-48.2243 120,-64.4958 120,-78.368"/>
<polygon fill="#000000" stroke="#000000" points="116.5001,-78.4005 120,-88.4006 123.5001,-78.4006 116.5001,-78.4005"/>
<text text-anchor="start" x="120" y="-59.2" font-family="Times,serif" font-size="14.00" fill="#000000">preservation</text>
<text text-anchor="start" x="189.1908" y="-59.2" font-family="Times,serif" baseline-shift="sub" font-size="14.00" fill="#000000">↑</text>
</g>
</g>
</svg>
