<?xml version="1.0" encoding="UTF-8" standalone="no"?><!DOCTYPE svg PUBLIC "-//W3C//DTD SVG 1.1//EN" "http://www.w3.org/Graphics/SVG/1.1/DTD/svg11.dtd"><!-- Generated by graphviz version 2.40.1 (20161225.0304)
 --><!-- Title: G Pages: 1 --><svg xmlns="http://www.w3.org/2000/svg" xmlns:xlink="http://www.w3.org/1999/xlink" width="223pt" height="133pt" viewBox="0.00 0.00 222.93 132.80">
<g id="graph0" class="graph" transform="scale(1 1) rotate(0) translate(4 128.8)">
<title>G</title>
<polygon fill="transparent" stroke="transparent" points="-4,4 -4,-128.8 218.925,-128.8 218.925,4 -4,4"/>
<!-- q0 -->
<g id="node1" class="node">
<title>q0</title>
<ellipse fill="none" stroke="#000000" cx="59" cy="-106.8" rx="27" ry="18"/>
<text text-anchor="start" x="50.4467" y="-103.6" font-family="Times,serif" font-size="14.00" fill="#000000">Q</text>
<text text-anchor="start" x="60.5533" y="-103.6" font-family="Times,serif" baseline-shift="sub" font-size="14.00" fill="#000000">0</text>
</g>
<!-- q1a -->
<g id="node2" class="node">
<title>q1a</title>
<ellipse fill="none" stroke="#000000" cx="27" cy="-18" rx="27" ry="18"/>
<text text-anchor="start" x="15.7244" y="-14.8" font-family="Times,serif" font-size="14.00" fill="#000000">Q</text>
<text text-anchor="start" x="25.831" y="-14.8" font-family="Times,serif" baseline-shift="sub" font-size="14.00" fill="#000000">1</text>
<text text-anchor="start" x="32.831" y="-14.8" font-family="Times,serif" font-size="14.00" fill="#000000">s</text>
</g>
<!-- q0&#45;&gt;q1a -->
<g id="edge2" class="edge">
<title>q0-&gt;q1a</title>
<path fill="none" stroke="#000000" d="M52.6778,-89.256C48.1635,-76.7287 42.0028,-59.6326 36.8474,-45.3264"/>
<polygon fill="#000000" stroke="#000000" points="39.992,-43.7288 33.309,-35.5076 33.4066,-46.102 39.992,-43.7288"/>
<text text-anchor="start" x="46" y="-59.2" font-family="Times,serif" font-size="14.00" fill="#000000">progress</text>
<text text-anchor="start" x="93.425" y="-59.2" font-family="Times,serif" baseline-shift="sub" font-size="14.00" fill="#000000">↓</text>
</g>
<!-- a0 -->
<g id="node3" class="node">
<title>a0</title>
<ellipse fill="none" stroke="#000000" cx="154" cy="-106.8" rx="27" ry="18"/>
<text text-anchor="start" x="145.4467" y="-103.6" font-family="Times,serif" font-size="14.00" fill="#000000">A</text>
<text text-anchor="start" x="155.5533" y="-103.6" font-family="Times,serif" baseline-shift="sub" font-size="14.00" fill="#000000">0</text>
</g>
<!-- q0&#45;&gt;a0 -->
<g id="edge1" class="edge">
<title>q0-&gt;a0</title>
<path fill="none" stroke="#000000" d="M86.0898,-106.8C96.3029,-106.8 106.5159,-106.8 116.729,-106.8"/>
<polygon fill="#000000" stroke="#000000" points="116.9421,-110.3001 126.942,-106.8 116.942,-103.3001 116.9421,-110.3001"/>
</g>
<!-- a1a -->
<g id="node4" class="node">
<title>a1a</title>
<ellipse fill="none" stroke="#000000" cx="160" cy="-18" rx="27" ry="18"/>
<text text-anchor="start" x="148.7244" y="-14.8" font-family="Times,serif" font-size="14.00" fill="#000000">A</text>
<text text-anchor="start" x="158.831" y="-14.8" font-family="Times,serif" baseline-shift="sub" font-size="14.00" fill="#000000">1</text>
<text text-anchor="start" x="165.831" y="-14.8" font-family="Times,serif" font-size="14.00" fill="#000000">s</text>
</g>
<!-- q1a&#45;&gt;a1a -->
<g id="edge3" class="edge">
<title>q1a-&gt;a1a</title>
<path fill="none" stroke="#000000" d="M54.2355,-18C73.9593,-18 100.8628,-18 122.5994,-18"/>
<polygon fill="#000000" stroke="#000000" points="122.801,-21.5001 132.8009,-18 122.8009,-14.5001 122.801,-21.5001"/>
<text text-anchor="start" x="63.1802" y="-26.2" font-family="Times,serif" font-size="14.00" fill="#000000">progress</text>
<text text-anchor="start" x="110.6052" y="-26.2" font-family="Times,serif" baseline-shift="sub" font-size="14.00" fill="#000000">qa</text>
</g>
<!-- a1a&#45;&gt;a0 -->
<g id="edge4" class="edge">
<title>a1a-&gt;a0</title>
<path fill="none" stroke="#000000" d="M158.7789,-36.072C157.9578,-48.2243 156.8584,-64.4958 155.9211,-78.368"/>
<polygon fill="#000000" stroke="#000000" points="152.4254,-78.1874 155.2432,-88.4006 159.4095,-78.6593 152.4254,-78.1874"/>
<text text-anchor="start" x="157" y="-59.2" font-family="Times,serif" font-size="14.00" fill="#000000">progress</text>
<text text-anchor="start" x="204.425" y="-59.2" font-family="Times,serif" baseline-shift="sub" font-size="14.00" fill="#000000">↑</text>
</g>
</g>
</svg>
