<?xml version="1.0" standalone="no"?><!DOCTYPE svg PUBLIC "-//W3C//DTD SVG 1.1//EN" "http://www.w3.org/Graphics/SVG/1.1/DTD/svg11.dtd"><svg width="300pt" height="332pt" viewBox="0.00 0.00 300.00 332.00" xmlns:xlink="http://www.w3.org/1999/xlink" version="1.1" xmlns="http://www.w3.org/2000/svg"><defs xmlns="http://www.w3.org/1999/xhtml"><style type="text/css"><![CDATA[
button { margin: 4px 5px 4px 4px; cursor: pointer; font-size: 70%; }]]></style></defs>
<g id="graph1" class="graph" transform="scale(1 1) rotate(0) translate(4 328)">
<title>G</title>
<polygon fill="none" stroke="none" points="-4,5 -4,-328 297,-328 297,5 -4,5"/>
<!-- 1 -->
<g id="node1" class="node"><title>1</title>
<ellipse fill="none" stroke="black" cx="181" cy="-306" rx="41.3142" ry="18"/>
<text text-anchor="middle" x="181" y="-301.8" font-family="Times,serif" font-size="14.00">Belief 1</text>
</g>
<!-- 2 -->
<g id="node2" class="node"><title>2</title>
<ellipse fill="none" stroke="black" cx="181" cy="-234" rx="111.311" ry="18"/>
<text text-anchor="middle" x="181" y="-229.8" font-family="Times,serif" font-size="14.00">Belief 2: Justifies Belief 1</text>
</g>
<!-- 1&#45;&gt;2 -->
<g id="edge2" class="edge"><title>1-&gt;2</title>
<path fill="none" stroke="black" d="M181,-287.697C181,-279.983 181,-270.712 181,-262.112"/>
<polygon fill="black" stroke="black" points="184.5,-262.104 181,-252.104 177.5,-262.104 184.5,-262.104"/>
</g>
<!-- 3 -->
<g id="node3" class="node"><title>3</title>
<ellipse fill="none" stroke="black" cx="181" cy="-162" rx="111.311" ry="18"/>
<text text-anchor="middle" x="181" y="-157.8" font-family="Times,serif" font-size="14.00">Belief 3: Justifies Belief 2</text>
</g>
<!-- 2&#45;&gt;3 -->
<g id="edge4" class="edge"><title>2-&gt;3</title>
<path fill="none" stroke="black" d="M181,-215.697C181,-207.983 181,-198.712 181,-190.112"/>
<polygon fill="black" stroke="black" points="184.5,-190.104 181,-180.104 177.5,-190.104 184.5,-190.104"/>
</g>
<!-- 4 -->
<g id="node4" class="node"><title>4</title>
<ellipse fill="none" stroke="black" cx="111" cy="-90" rx="111.311" ry="18"/>
<text text-anchor="middle" x="111" y="-85.8" font-family="Times,serif" font-size="14.00">Belief 4: Justifies Belief 3</text>
</g>
<!-- 3&#45;&gt;4 -->
<g id="edge6" class="edge"><title>3-&gt;4</title>
<path fill="none" stroke="black" d="M164.055,-144.055C155.498,-135.498 144.959,-124.959 135.535,-115.535"/>
<polygon fill="black" stroke="black" points="137.821,-112.872 128.275,-108.275 132.872,-117.821 137.821,-112.872"/>
</g>
<!-- 5 -->
<g id="node5" class="node"><title>5</title>
<ellipse fill="none" stroke="black" cx="181" cy="-18" rx="111.311" ry="18"/>
<text text-anchor="middle" x="181" y="-13.8" font-family="Times,serif" font-size="14.00">Belief 5: Justifies Belief 3</text>
</g>
<!-- 4&#45;&gt;5 -->
<g id="edge8" class="edge"><title>4-&gt;5</title>
<path fill="none" stroke="black" d="M127.945,-72.055C136.502,-63.4984 147.041,-52.9594 156.465,-43.5352"/>
<polygon fill="black" stroke="black" points="159.128,-45.8213 163.725,-36.2753 154.179,-40.8715 159.128,-45.8213"/>
</g>
<!-- 5&#45;&gt;3 -->
<g id="edge10" class="edge"><title>5-&gt;3</title>
<path fill="none" stroke="black" d="M203.334,-35.8042C213.87,-45.1567 225.349,-57.7751 231,-72 236.907,-86.8696 236.907,-93.1304 231,-108 226.673,-118.891 218.931,-128.84 210.81,-137.103"/>
<polygon fill="black" stroke="black" points="208.18,-134.774 203.334,-144.196 212.998,-139.852 208.18,-134.774"/>
</g>
</g>
</svg>
