<?xml version="1.0" standalone="no"?><!DOCTYPE svg PUBLIC "-//W3C//DTD SVG 1.1//EN" "http://www.w3.org/Graphics/SVG/1.1/DTD/svg11.dtd"><svg width="342pt" height="260pt" viewBox="0.00 0.00 342.00 260.00" xmlns:xlink="http://www.w3.org/1999/xlink" version="1.1" xmlns="http://www.w3.org/2000/svg"><defs xmlns="http://www.w3.org/1999/xhtml"><style type="text/css"><![CDATA[
button { margin: 4px 5px 4px 4px; cursor: pointer; font-size: 70%; }]]></style></defs>
<g id="graph1" class="graph" transform="scale(1 1) rotate(0) translate(4 256)">
<title>G</title>
<polygon fill="none" stroke="none" points="-4,5 -4,-256 339,-256 339,5 -4,5"/>
<!-- 1 -->
<g id="node1" class="node"><title>1</title>
<ellipse fill="none" stroke="black" cx="167" cy="-234" rx="41.3142" ry="18"/>
<text text-anchor="middle" x="167" y="-229.8" font-family="Times,serif" font-size="14.00">Belief 1</text>
</g>
<!-- 2 -->
<g id="node2" class="node"><title>2</title>
<ellipse fill="none" stroke="black" cx="167" cy="-162" rx="111.311" ry="18"/>
<text text-anchor="middle" x="167" y="-157.8" font-family="Times,serif" font-size="14.00">Belief 2: Justifies Belief 1</text>
</g>
<!-- 1&#45;&gt;2 -->
<g id="edge2" class="edge"><title>1-&gt;2</title>
<path fill="none" stroke="black" d="M167,-215.697C167,-207.983 167,-198.712 167,-190.112"/>
<polygon fill="black" stroke="black" points="170.5,-190.104 167,-180.104 163.5,-190.104 170.5,-190.104"/>
</g>
<!-- 3 -->
<g id="node3" class="node"><title>3</title>
<ellipse fill="none" stroke="black" cx="167" cy="-90" rx="111.311" ry="18"/>
<text text-anchor="middle" x="167" y="-85.8" font-family="Times,serif" font-size="14.00">Belief 3: Justifies Belief 2</text>
</g>
<!-- 2&#45;&gt;3 -->
<g id="edge4" class="edge"><title>2-&gt;3</title>
<path fill="none" stroke="black" d="M167,-143.697C167,-135.983 167,-126.712 167,-118.112"/>
<polygon fill="black" stroke="black" points="170.5,-118.104 167,-108.104 163.5,-118.104 170.5,-118.104"/>
</g>
<!-- 4 -->
<g id="node4" class="node"><title>4</title>
<ellipse fill="none" stroke="black" cx="167" cy="-18" rx="167.402" ry="18"/>
<text text-anchor="middle" x="167" y="-13.8" font-family="Times,serif" font-size="14.00">Belief 4: Justifies Belief 3; Foundational</text>
</g>
<!-- 3&#45;&gt;4 -->
<g id="edge6" class="edge"><title>3-&gt;4</title>
<path fill="none" stroke="black" d="M167,-71.6966C167,-63.9827 167,-54.7125 167,-46.1124"/>
<polygon fill="black" stroke="black" points="170.5,-46.1043 167,-36.1043 163.5,-46.1044 170.5,-46.1043"/>
</g>
</g>
</svg>
